<svg width="14" height="11" viewBox="0 0 14 11" fill="none" xmlns="http://www.w3.org/2000/svg">
<path d="M13.5688 4.29159L9.7189 0.441728C9.12993 -0.147243 8.16746 -0.147243 7.57849 0.441728C6.98952 1.0307 6.98952 1.99316 7.57849 2.58214L8.84263 3.84627H1.87553C1.04235 3.84627 0.367188 4.52143 0.367188 5.35461C0.367188 6.18779 1.04235 6.86295 1.87553 6.86295H8.85699L7.57849 8.14145C6.98952 8.73042 6.98952 9.69289 7.57849 10.2819C7.88016 10.5835 8.25365 10.7272 8.64151 10.7272C9.02937 10.7272 9.41723 10.5835 9.70454 10.2819L13.5544 6.432C13.8417 6.14469 13.9997 5.7712 13.9997 5.36897C14.0141 4.95239 13.8561 4.56453 13.5688 4.29159Z" fill="#4F80FF"/>
</svg>
