<svg width="64" height="88" viewBox="0 0 64 88" fill="none" xmlns="http://www.w3.org/2000/svg">
<path d="M37.6978 76.4269L39.0153 86.6464" stroke="#113EB6" stroke-width="0.685416" stroke-linecap="round" stroke-linejoin="round"/>
<path d="M36.6406 86.3324L38.6969 83.248L42.4667 85.3043" stroke="#113EB6" stroke-width="0.685416" stroke-linecap="round" stroke-linejoin="round"/>
<path d="M8.88229 46.3376C6.42669 53.5628 4.63499 56.7032 1.51585 61.3392C1.20536 61.8007 1.19927 62.4023 1.51483 62.8604C2.56868 64.3901 5.05106 67.879 7.16875 69.9845C9.25891 72.0626 10.5722 73.1036 12.9948 74.7824C15.1644 76.2859 16.4418 77.0658 18.8208 78.2095C21.6445 79.5668 23.2765 80.3985 26.3604 80.9511C31.3941 81.8532 34.518 81.1553 39.3833 79.5803C43.2559 78.3266 45.3598 77.1974 48.6364 74.7824C52.2177 72.1428 54.1638 70.3319 56.5187 66.5574C59.0991 62.4215 60.1991 54.7661 60.2832 54.158C60.2872 54.1293 60.2892 54.109 60.2912 54.0801C60.337 53.3957 60.9488 43.9672 60.2885 38.3549C59.6031 32.5289 56.5187 21.6626 54.4625 18.5782C52.4062 15.4939 49.8163 13.4508 45.8948 11.7241C42.0486 10.0305 39.4626 9.70966 35.2708 10.0105C30.9226 10.3227 28.3189 11.088 24.6469 13.4376C19.9108 16.4682 17.45 20.6345 15.7365 24.747C14.0229 28.8595 11.4701 38.7233 8.88229 46.3376Z" fill="#4F80FF" stroke="#4F80FF" stroke-width="0.685416" stroke-linejoin="round"/>
<circle cx="52.7477" cy="23.9625" r="7.02552" fill="white" stroke="#113EB6" stroke-width="0.342708"/>
<circle cx="52.7497" cy="25.2712" r="4.57983" fill="#113EB6"/>
<circle cx="30.4751" cy="24.9878" r="7.36822" fill="white" stroke="#113EB6" stroke-width="0.342708"/>
<circle cx="31.1592" cy="26.3594" r="4.79791" fill="#113EB6"/>
<circle cx="58.9184" cy="35.6137" r="3.08437" fill="#F96057"/>
<circle cx="22.5922" cy="36.9848" r="3.08437" fill="#F96057"/>
<path d="M44.5234 27.7314L39.3828 30.8158C40.3566 33.0703 41.3773 33.6516 43.4953 34.2429L44.5234 27.7314Z" fill="#FFB84F" stroke="#FFB84F" stroke-width="0.685416" stroke-linejoin="round"/>
<path d="M14.707 54.8057C14.3643 56.5192 14.0216 65.4296 17.1059 63.3734C20.1903 61.3171 19.8477 56.5192 20.1904 59.2609C20.5331 62.0025 25.3311 64.4015 25.3311 61.3171C25.3311 58.8496 26.2449 57.3189 26.7019 56.8619" stroke="#113EB6" stroke-width="0.685416"/>
<path d="M50.4938 56.0501C50.4948 57.7976 51.9114 66.6014 54.5311 63.9786C57.1507 61.3559 55.8711 56.7191 56.7464 59.3398C57.6217 61.9605 62.7977 63.3688 62.1911 60.3447C61.7057 57.9254 62.3007 56.2448 62.6588 55.7069" stroke="#113EB6" stroke-width="0.685416"/>
<path d="M37.25 10.5958C40.7307 10.5958 47.4245 6.55551 42.3372 5.04039C37.25 3.52527 30.8929 7.81811 37.25 7.81811C43.607 7.81811 45.5506 2.51512 42.3372 1" stroke="#113EB6" stroke-width="0.685416" stroke-linecap="round"/>
<path d="M21.5624 76.3955L20.877 86.6768" stroke="#113EB6" stroke-width="0.685416" stroke-linecap="round" stroke-linejoin="round"/>
<path d="M18.1367 86.3344L18.4794 85.9488L20.8784 83.25L23.62 85.9488" stroke="#113EB6" stroke-width="0.685416" stroke-linecap="round" stroke-linejoin="round"/>
</svg>
