<svg width="631" height="283" viewBox="0 0 631 283" fill="none" xmlns="http://www.w3.org/2000/svg">
<path fill-rule="evenodd" clip-rule="evenodd" d="M164.822 167.374L164.801 167.409C161.854 172.461 160.898 176.185 160.898 178.795C160.898 181.7 161.668 183.992 163.127 186.003C165.203 188.727 167.231 190.494 169.129 191.601C172.5 193.475 175.604 195.31 178.432 197.105C180.041 198.065 181.743 199.233 183.162 200.652C184.394 201.884 186.873 204.745 186.873 209.007C186.873 213.12 184.888 216.961 181.152 219.229C178.159 221.047 174.855 221.35 172.504 221.35C163.55 221.35 154.986 216.497 147.137 209.712L147.107 209.687L147.078 209.661C143.666 206.66 140.784 203.384 138.549 199.841C133.927 205.646 130.452 209.845 128.17 212.369C126.311 214.49 124.445 216.4 122.623 217.858C121.7 218.596 120.591 219.378 119.331 220.009C118.136 220.606 116.249 221.35 113.922 221.35C107.744 221.35 103.958 217.112 102.058 214.073L101.883 213.793L101.728 213.501C100.061 210.352 99 206.855 99 203.112C99 201.602 99.3086 199.916 99.5452 198.726C99.8306 197.29 100.237 195.526 100.745 193.48C101.763 189.376 103.267 183.818 105.241 176.848C109.089 163.135 112.967 146.611 116.866 127.239C120.706 108.159 122.58 91.1583 122.58 76.1849C122.58 74.8788 122.657 73.4383 122.927 72.0205C123.151 70.8428 123.658 68.8311 125.063 66.9171C128.171 62.5414 133.045 62 135.475 62C139.233 62 142.088 63.7643 143.91 65.4343C145.613 66.9955 146.888 68.8815 147.863 70.6353C150.246 74.569 151.503 78.9279 151.503 83.5537C151.503 101.139 148.462 122.526 142.526 147.608C149.804 138.148 156.213 130.461 161.743 124.585L161.765 124.562L161.788 124.538C164.468 121.731 166.892 119.386 168.988 117.678C170.026 116.833 171.191 115.971 172.422 115.276C173.396 114.727 175.592 113.581 178.399 113.581C183.114 113.581 186.849 115.833 189.468 118.626C191.37 120.56 194.057 123.985 194.057 128.687C194.057 131.239 193.072 133.204 192.668 133.969C192.131 134.985 191.488 135.912 190.902 136.687C189.715 138.254 188.133 140.018 186.314 141.901C182.868 145.471 179.054 149.408 174.873 153.712C171.313 157.376 167.955 161.89 164.842 167.338L164.822 167.374ZM182.82 125.003C181.469 123.529 179.995 122.792 178.399 122.792C176.925 122.792 173.609 125.494 168.451 130.898C160.053 139.821 149.35 153.323 136.342 171.404C133.087 175.929 129.687 180.74 126.143 185.839C123.966 188.971 121.734 192.211 119.448 195.559C119.689 194.805 119.928 194.054 120.165 193.306C123.024 184.28 125.605 175.63 127.91 167.354C137.498 132.926 142.292 104.992 142.292 83.5537C142.292 81.3879 141.861 79.3216 140.999 77.3548C140.887 77.0991 140.767 76.8452 140.641 76.5929C140.572 76.4564 140.502 76.3204 140.429 76.1849C140.263 75.8753 140.085 75.5683 139.897 75.2638C138.423 72.5619 136.949 71.211 135.475 71.211C134.002 71.211 133.019 71.5794 132.528 72.3163C132.037 72.9304 131.791 74.2199 131.791 76.1849C131.791 77.2029 131.783 78.2288 131.766 79.2628C131.765 79.37 131.763 79.4773 131.761 79.5846C131.5 94.4338 129.545 110.924 125.896 129.056C121.966 148.583 118.036 165.347 114.106 179.348C110.176 193.226 108.211 201.147 108.211 203.112C108.211 205.077 108.764 207.103 109.869 209.191C111.097 211.156 112.448 212.139 113.922 212.139C115.396 212.139 117.852 210.174 121.291 206.244C122.53 204.876 124.195 202.919 126.283 200.375C126.309 200.343 126.335 200.311 126.362 200.279C126.877 199.651 127.419 198.987 127.985 198.287C128.127 198.112 128.271 197.934 128.416 197.755C129.947 195.86 131.656 193.719 133.544 191.329C133.809 190.995 134.077 190.655 134.348 190.31C136.344 187.778 138.529 184.984 140.904 181.927C141.419 181.264 141.943 180.588 142.476 179.9V181.927C142.476 185.427 143.228 188.784 144.733 191.998C146.502 195.777 149.311 199.359 153.16 202.744C157.427 206.432 161.417 209.034 165.13 210.551C166.44 211.085 167.715 211.485 168.956 211.75C169.053 211.771 169.15 211.79 169.246 211.809C169.34 211.828 169.433 211.846 169.527 211.863C170.542 212.047 171.535 212.139 172.504 212.139C175.942 212.139 177.662 211.095 177.662 209.007C177.662 207.902 176.311 206.551 173.609 204.954C173.246 204.723 172.878 204.491 172.504 204.258C172.148 204.036 171.787 203.814 171.422 203.59C170.693 203.144 169.944 202.694 169.176 202.24C167.716 201.379 166.185 200.502 164.582 199.612C161.389 197.77 158.441 195.068 155.74 191.506C153.038 187.822 151.687 183.585 151.687 178.795C151.687 174.005 153.406 168.663 156.845 162.768C160.284 156.75 164.091 151.592 168.266 147.294C172.442 142.995 176.249 139.065 179.688 135.504C183.127 131.942 184.846 129.67 184.846 128.687C184.846 127.582 184.171 126.354 182.82 125.003ZM173.034 202.899C173.034 202.899 173.01 202.905 172.957 202.91C173.006 202.901 173.034 202.899 173.034 202.899Z" fill="url(#paint0_linear)"/>
<path d="M210.788 208.785C208.896 208.785 207.319 208.26 206.057 207.208C204.866 206.087 204.27 204.51 204.27 202.477V161.894C204.27 159.861 204.866 158.319 206.057 157.268C207.319 156.216 208.896 155.69 210.788 155.69C212.681 155.69 214.258 156.216 215.52 157.268C216.781 158.319 217.412 159.861 217.412 161.894V202.477C217.412 204.51 216.781 206.087 215.52 207.208C214.258 208.26 212.681 208.785 210.788 208.785ZM210.788 146.333C208.405 146.333 206.513 145.702 205.111 144.441C203.709 143.109 203.008 141.392 203.008 139.289C203.008 137.186 203.709 135.504 205.111 134.242C206.513 132.981 208.405 132.35 210.788 132.35C213.101 132.35 214.959 132.981 216.361 134.242C217.833 135.504 218.569 137.186 218.569 139.289C218.569 141.392 217.868 143.109 216.466 144.441C215.064 145.702 213.172 146.333 210.788 146.333Z" fill="url(#paint1_linear)"/>
<path d="M258.265 199.008C261.77 199.218 263.522 200.795 263.522 203.739C263.522 205.421 262.821 206.718 261.42 207.629C260.088 208.47 258.16 208.821 255.637 208.68L252.798 208.47C241.023 207.629 235.135 201.321 235.135 189.545V166.625H229.878C227.986 166.625 226.514 166.204 225.462 165.363C224.481 164.522 223.99 163.296 223.99 161.683C223.99 160.071 224.481 158.845 225.462 158.004C226.514 157.162 227.986 156.742 229.878 156.742H235.135V147.069C235.135 145.177 235.731 143.67 236.922 142.548C238.114 141.427 239.726 140.866 241.759 140.866C243.721 140.866 245.298 141.427 246.49 142.548C247.681 143.67 248.277 145.177 248.277 147.069V156.742H257.214C259.107 156.742 260.543 157.162 261.525 158.004C262.576 158.845 263.102 160.071 263.102 161.683C263.102 163.296 262.576 164.522 261.525 165.363C260.543 166.204 259.107 166.625 257.214 166.625H248.277V190.491C248.277 195.678 250.66 198.447 255.427 198.797L258.265 199.008Z" fill="url(#paint2_linear)"/>
<path d="M303.769 208.785C301.877 208.785 300.3 208.26 299.038 207.208C297.847 206.087 297.251 204.51 297.251 202.477V139.709C297.251 137.677 297.847 136.135 299.038 135.083C300.3 134.032 301.877 133.506 303.769 133.506C305.662 133.506 307.239 134.032 308.501 135.083C309.762 136.135 310.393 137.677 310.393 139.709V202.477C310.393 204.51 309.762 206.087 308.501 207.208C307.239 208.26 305.662 208.785 303.769 208.785Z" fill="url(#paint3_linear)"/>
<path d="M362.139 194.066C363.331 194.066 364.277 194.522 364.978 195.433C365.749 196.344 366.134 197.571 366.134 199.113C366.134 201.286 364.838 203.108 362.244 204.58C359.861 205.912 357.163 206.998 354.149 207.839C351.135 208.61 348.261 208.996 345.527 208.996C337.256 208.996 330.703 206.613 325.866 201.846C321.03 197.08 318.612 190.561 318.612 182.291C318.612 177.034 319.663 172.372 321.766 168.307C323.869 164.242 326.813 161.088 330.598 158.845C334.453 156.602 338.798 155.48 343.635 155.48C348.261 155.48 352.291 156.497 355.726 158.529C359.16 160.562 361.824 163.436 363.716 167.151C365.609 170.865 366.555 175.246 366.555 180.293C366.555 183.307 365.223 184.814 362.56 184.814H331.544C331.964 189.65 333.331 193.225 335.644 195.538C337.957 197.781 341.322 198.902 345.738 198.902C347.98 198.902 349.943 198.622 351.625 198.061C353.378 197.501 355.34 196.73 357.513 195.748C359.616 194.627 361.158 194.066 362.139 194.066ZM343.95 164.732C340.375 164.732 337.502 165.854 335.329 168.097C333.226 170.34 331.964 173.564 331.544 177.77H355.305C355.165 173.494 354.114 170.27 352.151 168.097C350.188 165.854 347.455 164.732 343.95 164.732Z" fill="url(#paint4_linear)"/>
<path d="M429.86 155.48C436.028 155.48 440.619 157.233 443.633 160.737C446.647 164.242 448.154 169.534 448.154 176.613V202.477C448.154 204.44 447.558 205.982 446.367 207.103C445.245 208.225 443.668 208.785 441.635 208.785C439.603 208.785 437.991 208.225 436.799 207.103C435.608 205.982 435.012 204.44 435.012 202.477V177.349C435.012 173.354 434.241 170.445 432.699 168.623C431.227 166.8 428.879 165.889 425.654 165.889C421.869 165.889 418.82 167.081 416.507 169.464C414.264 171.847 413.143 175.036 413.143 179.031V202.477C413.143 204.44 412.547 205.982 411.356 207.103C410.164 208.225 408.552 208.785 406.519 208.785C404.487 208.785 402.874 208.225 401.683 207.103C400.561 205.982 400.001 204.44 400.001 202.477V161.789C400.001 159.966 400.596 158.494 401.788 157.373C402.98 156.251 404.592 155.69 406.624 155.69C408.447 155.69 409.919 156.251 411.04 157.373C412.232 158.424 412.827 159.826 412.827 161.578V164.417C414.58 161.543 416.928 159.335 419.872 157.793C422.816 156.251 426.145 155.48 429.86 155.48Z" fill="url(#paint5_linear)"/>
<path d="M463.862 208.785C461.969 208.785 460.392 208.26 459.13 207.208C457.939 206.087 457.343 204.51 457.343 202.477V161.894C457.343 159.861 457.939 158.319 459.13 157.268C460.392 156.216 461.969 155.69 463.862 155.69C465.754 155.69 467.331 156.216 468.593 157.268C469.855 158.319 470.485 159.861 470.485 161.894V202.477C470.485 204.51 469.855 206.087 468.593 207.208C467.331 208.26 465.754 208.785 463.862 208.785ZM463.862 146.333C461.479 146.333 459.586 145.702 458.184 144.441C456.782 143.109 456.081 141.392 456.081 139.289C456.081 137.186 456.782 135.504 458.184 134.242C459.586 132.981 461.479 132.35 463.862 132.35C466.175 132.35 468.032 132.981 469.434 134.242C470.906 135.504 471.642 137.186 471.642 139.289C471.642 141.392 470.941 143.109 469.539 144.441C468.137 145.702 466.245 146.333 463.862 146.333Z" fill="url(#paint6_linear)"/>
<path d="M525.271 133.506C527.234 133.506 528.846 134.067 530.108 135.188C531.369 136.31 532 137.782 532 139.604V202.477C532 204.37 531.404 205.877 530.213 206.998C529.021 208.119 527.444 208.68 525.481 208.68C523.519 208.68 521.942 208.119 520.75 206.998C519.559 205.877 518.963 204.37 518.963 202.477V199.849C517.421 202.722 515.178 204.965 512.234 206.577C509.36 208.19 506.066 208.996 502.351 208.996C497.935 208.996 493.975 207.874 490.47 205.631C487.036 203.388 484.337 200.234 482.375 196.169C480.482 192.033 479.536 187.302 479.536 181.975C479.536 176.648 480.482 171.987 482.375 167.992C484.337 163.996 487.036 160.912 490.47 158.739C493.905 156.567 497.865 155.48 502.351 155.48C506.066 155.48 509.36 156.251 512.234 157.793C515.108 159.335 517.316 161.508 518.858 164.312V139.394C518.858 137.642 519.418 136.24 520.54 135.188C521.731 134.067 523.309 133.506 525.271 133.506ZM505.821 198.797C510.026 198.797 513.25 197.36 515.493 194.487C517.806 191.613 518.963 187.512 518.963 182.185C518.963 176.858 517.806 172.793 515.493 169.989C513.25 167.115 510.061 165.679 505.926 165.679C501.72 165.679 498.461 167.08 496.148 169.884C493.835 172.688 492.678 176.718 492.678 181.975C492.678 187.302 493.835 191.438 496.148 194.381C498.461 197.325 501.685 198.797 505.821 198.797Z" fill="url(#paint7_linear)"/>
<defs>
<linearGradient id="paint0_linear" x1="99.612" y1="101.845" x2="270.207" y2="267.719" gradientUnits="userSpaceOnUse">
<stop stop-color="#CC95DF"/>
<stop offset="1" stop-color="#4F80FF"/>
</linearGradient>
<linearGradient id="paint1_linear" x1="99.612" y1="101.845" x2="270.207" y2="267.719" gradientUnits="userSpaceOnUse">
<stop stop-color="#CC95DF"/>
<stop offset="1" stop-color="#4F80FF"/>
</linearGradient>
<linearGradient id="paint2_linear" x1="99.612" y1="101.845" x2="270.207" y2="267.719" gradientUnits="userSpaceOnUse">
<stop stop-color="#CC95DF"/>
<stop offset="1" stop-color="#4F80FF"/>
</linearGradient>
<linearGradient id="paint3_linear" x1="99.612" y1="101.845" x2="270.207" y2="267.719" gradientUnits="userSpaceOnUse">
<stop stop-color="#CC95DF"/>
<stop offset="1" stop-color="#4F80FF"/>
</linearGradient>
<linearGradient id="paint4_linear" x1="99.612" y1="101.845" x2="270.207" y2="267.719" gradientUnits="userSpaceOnUse">
<stop stop-color="#CC95DF"/>
<stop offset="1" stop-color="#4F80FF"/>
</linearGradient>
<linearGradient id="paint5_linear" x1="99.612" y1="101.845" x2="270.207" y2="267.719" gradientUnits="userSpaceOnUse">
<stop stop-color="#CC95DF"/>
<stop offset="1" stop-color="#4F80FF"/>
</linearGradient>
<linearGradient id="paint6_linear" x1="99.612" y1="101.845" x2="270.207" y2="267.719" gradientUnits="userSpaceOnUse">
<stop stop-color="#CC95DF"/>
<stop offset="1" stop-color="#4F80FF"/>
</linearGradient>
<linearGradient id="paint7_linear" x1="99.612" y1="101.845" x2="270.207" y2="267.719" gradientUnits="userSpaceOnUse">
<stop stop-color="#CC95DF"/>
<stop offset="1" stop-color="#4F80FF"/>
</linearGradient>
</defs>
</svg>
