<svg width="116" height="90" viewBox="0 0 116 90" fill="none" xmlns="http://www.w3.org/2000/svg">
<path d="M33.6767 50.2497L32.9461 56.4374" stroke="#113EB6" stroke-width="0.447564" stroke-linecap="round" stroke-linejoin="round"/>
<path d="M34.8262 55.9677L33.0247 54.7051L28.7186 56.9073" stroke="#113EB6" stroke-width="0.447565" stroke-linecap="round" stroke-linejoin="round"/>
<path d="M52.4956 30.6048C54.099 35.3227 55.269 37.3734 57.3057 40.4006C57.5085 40.702 57.5125 41.0948 57.3064 41.3939C56.6183 42.3928 54.9973 44.671 53.6145 46.0458C52.2497 47.4028 51.3921 48.0825 49.8102 49.1788C48.3935 50.1605 47.5594 50.6698 46.0059 51.4166C44.1621 52.3029 43.0964 52.846 41.0827 53.2068C37.7958 53.7959 35.7559 53.3401 32.579 52.3117C30.0502 51.4931 28.6764 50.7557 26.5368 49.1788C24.1983 47.4552 22.9276 46.2727 21.3899 43.808C19.7049 41.1073 18.9867 36.1085 18.9317 35.7114C18.9291 35.6927 18.9278 35.6794 18.9265 35.6605C18.8966 35.2136 18.4971 29.057 18.9283 25.3923C19.3758 21.588 21.3899 14.4925 22.7326 12.4785C24.0752 10.4644 25.7664 9.13033 28.3271 8.00282C30.8386 6.89696 32.5272 6.68743 35.2644 6.88391C38.1037 7.08772 39.8038 7.58744 42.2016 9.12173C45.2942 11.1006 46.901 13.8211 48.0199 16.5065C49.1389 19.1919 50.8058 25.6328 52.4956 30.6048Z" fill="#4F80FF" stroke="#4F80FF" stroke-width="0.447565" stroke-linejoin="round"/>
<circle r="4.58754" transform="matrix(-1 -8.74228e-08 -8.74228e-08 1 23.8514 15.9953)" fill="white" stroke="#113EB6" stroke-width="0.223782"/>
<circle r="2.99054" transform="matrix(-1 -8.74228e-08 -8.74228e-08 1 23.8532 16.8499)" fill="#113EB6"/>
<circle r="4.81132" transform="matrix(-1 -8.74228e-08 -8.74228e-08 1 38.3932 16.6625)" fill="white" stroke="#113EB6" stroke-width="0.223782"/>
<circle r="3.13295" transform="matrix(-1 -8.74228e-08 -8.74228e-08 1 37.9471 17.5578)" fill="#113EB6"/>
<circle r="2.01404" transform="matrix(-1 -8.74228e-08 -8.74228e-08 1 19.8258 23.601)" fill="#F96057"/>
<circle r="2.01404" transform="matrix(-1 -8.74228e-08 -8.74228e-08 1 43.5446 24.4984)" fill="#F96057"/>
<path d="M29.2233 18.4541L32.5801 20.4681C31.9442 21.9403 31.2777 22.3199 29.8947 22.706L29.2233 18.4541Z" fill="#FFB84F" stroke="#FFB84F" stroke-width="0.447565" stroke-linejoin="round"/>
<path d="M48.6944 36.1357C48.9182 37.2547 49.142 43.073 47.1279 41.7303C45.1139 40.3876 45.3376 37.2547 45.1138 39.0449C44.89 40.8352 41.7571 42.4016 41.7571 40.3876C41.7571 38.7764 41.1603 37.7768 40.8619 37.4784" stroke="#113EB6" stroke-width="0.447565"/>
<path d="M25.3241 36.9487C25.3235 38.0898 24.3984 43.8385 22.6878 42.1259C20.9772 40.4133 21.8128 37.3855 21.2413 39.0968C20.6697 40.8081 17.2899 41.7277 17.686 39.753C18.0029 38.1733 17.6144 37.0758 17.3806 36.7246" stroke="#113EB6" stroke-width="0.447565"/>
<path d="M33.9722 7.2659C31.6994 7.2659 27.3285 4.62765 30.6504 3.6383C33.9722 2.64895 38.1233 5.4521 33.9722 5.4521C29.8212 5.4521 28.5521 1.98935 30.6504 1" stroke="#113EB6" stroke-width="0.447565" stroke-linecap="round"/>
<path d="M44.2164 50.2334L44.6934 55.4977" stroke="#113EB6" stroke-width="0.447565" stroke-linecap="round" stroke-linejoin="round"/>
<path d="M47.043 55.4983L46.1033 55.9681L44.6939 54.0889L41.875 55.4983" stroke="#113EB6" stroke-width="0.447565" stroke-linecap="round" stroke-linejoin="round"/>
<path d="M1 68.1831C8.20377 60.9793 39.7125 50.8005 57.3774 58.3175C79.4585 67.7137 66.7736 98.251 49.3906 86.9755C32.0075 75.7 46.1019 54.0887 78.9887 43.2831C105.298 34.6385 120.958 22.1416 125.5 16.9736" stroke="#113EB6" stroke-width="0.939623"/>
</svg>
