<svg width="68" height="68" viewBox="0 0 68 68" fill="none" xmlns="http://www.w3.org/2000/svg">
<g filter="url(#filter0_di)">
<rect x="14" y="10" width="40" height="40" rx="10" fill="#4F80FF"/>
</g>
<path fill-rule="evenodd" clip-rule="evenodd" d="M32.3117 22.5C30.5274 22.5 28.8599 23.3004 27.7426 24.7012C26.0584 26.8023 26.0917 29.954 27.8093 32.0385C28.9266 33.3892 30.5775 34.1563 32.3117 34.1563C33.4123 34.1563 34.4962 33.8394 35.4301 33.2558L35.5301 33.1891L39.4822 37.1745C39.9158 37.6248 40.6996 37.6248 41.1331 37.1745C41.3666 36.9411 41.5 36.6409 41.5 36.3241C41.5 36.0073 41.3833 35.7238 41.1665 35.4903L37.1977 31.5215L37.2644 31.4215C38.7152 29.1035 38.365 26.152 36.4473 24.2176C35.3467 23.1003 33.8792 22.5 32.3117 22.5ZM35.2466 31.2714C34.4629 32.0551 33.4123 32.4887 32.3117 32.4887C31.1945 32.4887 30.1606 32.0551 29.3768 31.2714C28.5931 30.4876 28.1595 29.4371 28.1595 28.3365C28.1595 27.2192 28.5931 26.1853 29.3768 25.4016C30.1606 24.6178 31.2111 24.1842 32.3117 24.1842C33.429 24.1842 34.4629 24.6178 35.2466 25.4016C36.0304 26.1853 36.464 27.2359 36.464 28.3365C36.464 29.4371 36.0304 30.4876 35.2466 31.2714Z" fill="white"/>
<defs>
<filter id="filter0_di" x="0" y="0" width="68" height="68" filterUnits="userSpaceOnUse" color-interpolation-filters="sRGB">
<feFlood flood-opacity="0" result="BackgroundImageFix"/>
<feColorMatrix in="SourceAlpha" type="matrix" values="0 0 0 0 0 0 0 0 0 0 0 0 0 0 0 0 0 0 127 0"/>
<feOffset dy="4"/>
<feGaussianBlur stdDeviation="7"/>
<feColorMatrix type="matrix" values="0 0 0 0 0.0533854 0 0 0 0 0.421745 0 0 0 0 0.854167 0 0 0 0.35 0"/>
<feBlend mode="normal" in2="BackgroundImageFix" result="effect1_dropShadow"/>
<feBlend mode="normal" in="SourceGraphic" in2="effect1_dropShadow" result="shape"/>
<feColorMatrix in="SourceAlpha" type="matrix" values="0 0 0 0 0 0 0 0 0 0 0 0 0 0 0 0 0 0 127 0" result="hardAlpha"/>
<feOffset/>
<feGaussianBlur stdDeviation="3"/>
<feComposite in2="hardAlpha" operator="arithmetic" k2="-1" k3="1"/>
<feColorMatrix type="matrix" values="0 0 0 0 0.0958333 0 0 0 0 0.282599 0 0 0 0 0.766667 0 0 0 0.6 0"/>
<feBlend mode="normal" in2="shape" result="effect2_innerShadow"/>
</filter>
</defs>
</svg>
