<svg width="604" height="52" viewBox="0 0 604 52" fill="none" xmlns="http://www.w3.org/2000/svg">
<g filter="url(#filter0_bi)">
<path d="M0 11C0 4.92487 4.92487 0 11 0H593C599.075 0 604 4.92487 604 11V52H0V11Z" fill="#CCDADA" fill-opacity="0.9" style="mix-blend-mode:hard-light"/>
</g>
<circle cx="67" cy="25" r="6" fill="#5FCF65"/>
<circle cx="47" cy="25" r="6" fill="#F8CE52"/>
<circle cx="27" cy="25" r="6" fill="#F96057"/>
<path d="M32.75 25C32.75 28.1756 30.1756 30.75 27 30.75C23.8244 30.75 21.25 28.1756 21.25 25C21.25 21.8244 23.8244 19.25 27 19.25C30.1756 19.25 32.75 21.8244 32.75 25Z" stroke="black" stroke-opacity="0.25" stroke-width="0.5" style="mix-blend-mode:luminosity"/>
<circle cx="47" cy="25" r="5.75" stroke="black" stroke-opacity="0.25" stroke-width="0.5" style="mix-blend-mode:luminosity"/>
<circle cx="67" cy="25" r="5.75" stroke="black" stroke-opacity="0.25" stroke-width="0.5" style="mix-blend-mode:luminosity"/>
<path fill-rule="evenodd" clip-rule="evenodd" d="M578.776 31.2727L578.779 31.2669L578.783 31.2612C579.286 30.3796 579.83 29.6493 580.406 29.0563C581.082 28.3599 581.699 27.7229 582.257 27.1454C582.551 26.8406 582.807 26.5552 582.999 26.3016C583.094 26.1762 583.198 26.0262 583.285 25.8618C583.35 25.7381 583.51 25.4201 583.51 25.0073C583.51 24.2463 583.075 23.6922 582.767 23.3792C582.343 22.9273 581.739 22.563 580.976 22.563C580.522 22.563 580.167 22.7484 580.009 22.8373C579.81 22.9496 579.621 23.0891 579.453 23.2259C579.114 23.5022 578.722 23.8816 578.288 24.3359L578.285 24.3397L578.281 24.3435C577.386 25.2943 576.349 26.538 575.172 28.0687C576.132 24.0103 576.624 20.5497 576.624 17.7043C576.624 16.9558 576.421 16.2505 576.035 15.614C575.878 15.3303 575.671 15.0251 575.396 14.7725C575.101 14.5023 574.639 14.2168 574.031 14.2168C573.638 14.2168 572.849 14.3044 572.346 15.0124C572.119 15.3221 572.037 15.6476 572 15.8382C571.957 16.0676 571.944 16.3007 571.944 16.512C571.944 18.9348 571.641 21.6856 571.02 24.7728C570.389 27.9074 569.761 30.5812 569.139 32.8C568.819 33.9278 568.576 34.8271 568.411 35.491C568.329 35.8221 568.263 36.1075 568.217 36.3399C568.179 36.5325 568.129 36.8053 568.129 37.0496C568.129 37.6552 568.301 38.2211 568.57 38.7306L568.595 38.7779L568.624 38.8232C568.931 39.315 569.544 40.0006 570.543 40.0006C570.92 40.0006 571.225 39.8803 571.419 39.7837C571.623 39.6817 571.802 39.5551 571.951 39.4356C572.246 39.1997 572.548 38.8907 572.849 38.5475C573.218 38.1391 573.78 37.4596 574.528 36.5204C574.89 37.0937 575.356 37.6238 575.908 38.1093L575.913 38.1134L575.918 38.1176C577.188 39.2154 578.574 40.0006 580.022 40.0006C580.403 40.0006 580.937 39.9516 581.422 39.6575C582.026 39.2905 582.347 38.669 582.347 38.0035C582.347 37.3138 581.946 36.8509 581.747 36.6515C581.517 36.422 581.242 36.233 580.981 36.0777C580.524 35.7872 580.022 35.4903 579.476 35.1871C579.169 35.008 578.841 34.722 578.505 34.2813C578.269 33.9558 578.144 33.585 578.144 33.115C578.144 32.6927 578.299 32.0901 578.776 31.2727Z" fill="#CCDADA"/>
<defs>
<filter id="filter0_bi" x="-81.5485" y="-81.5485" width="767.097" height="215.097" filterUnits="userSpaceOnUse" color-interpolation-filters="sRGB">
<feFlood flood-opacity="0" result="BackgroundImageFix"/>
<feGaussianBlur in="BackgroundImage" stdDeviation="40.7742"/>
<feComposite in2="SourceAlpha" operator="in" result="effect1_backgroundBlur"/>
<feBlend mode="normal" in="SourceGraphic" in2="effect1_backgroundBlur" result="shape"/>
<feColorMatrix in="SourceAlpha" type="matrix" values="0 0 0 0 0 0 0 0 0 0 0 0 0 0 0 0 0 0 127 0" result="hardAlpha"/>
<feOffset dy="1"/>
<feGaussianBlur stdDeviation="1.5"/>
<feComposite in2="hardAlpha" operator="arithmetic" k2="-1" k3="1"/>
<feColorMatrix type="matrix" values="0 0 0 0 1 0 0 0 0 1 0 0 0 0 1 0 0 0 0.5 0"/>
<feBlend mode="normal" in2="shape" result="effect2_innerShadow"/>
</filter>
</defs>
</svg>
