<svg width="9" height="12" viewBox="0 0 9 12" fill="none" xmlns="http://www.w3.org/2000/svg">
<path d="M0.672 12V10.656C0.672 9.87733 0.8 9.232 1.056 8.72C1.312 8.19733 1.68 7.77067 2.16 7.44C2.65067 7.09867 3.248 6.82133 3.952 6.608L5.024 6.272C5.41867 6.144 5.74933 5.98933 6.016 5.808C6.28267 5.616 6.48533 5.38667 6.624 5.12C6.77333 4.85333 6.848 4.54933 6.848 4.208V4.144C6.848 3.61067 6.66667 3.18933 6.304 2.88C5.94133 2.56 5.44533 2.4 4.816 2.4C4.19733 2.4 3.696 2.57067 3.312 2.912C2.93867 3.24267 2.752 3.72267 2.752 4.352V4.64H0.704V4.384C0.704 3.57333 0.885333 2.88533 1.248 2.32C1.61067 1.75467 2.10133 1.32267 2.72 1.024C3.34933 0.725333 4.048 0.575999 4.816 0.575999C5.584 0.575999 6.27733 0.725333 6.896 1.024C7.51467 1.312 8 1.72267 8.352 2.256C8.71467 2.77867 8.896 3.39733 8.896 4.112V4.272C8.896 4.98667 8.74667 5.59467 8.448 6.096C8.16 6.58667 7.76533 6.992 7.264 7.312C6.76267 7.62133 6.192 7.87733 5.552 8.08L4.528 8.4C4.06933 8.53867 3.712 8.69333 3.456 8.864C3.2 9.024 3.01867 9.20533 2.912 9.408C2.816 9.6 2.768 9.83467 2.768 10.112V10.176H8.8V12H0.672Z" fill="white"/>
</svg>
