<svg width="10" height="13" viewBox="0 0 10 13" fill="none" xmlns="http://www.w3.org/2000/svg">
<path d="M4.864 12.224C4.02133 12.224 3.27467 12.0747 2.624 11.776C1.97333 11.4773 1.46133 11.0507 1.088 10.496C0.725333 9.93067 0.544 9.264 0.544 8.496V8.208H2.592V8.432C2.592 9.02933 2.8 9.50933 3.216 9.872C3.632 10.224 4.18133 10.4 4.864 10.4C5.55733 10.4 6.09067 10.2347 6.464 9.904C6.848 9.57333 7.04 9.15733 7.04 8.656V8.496C7.04 8.15467 6.95467 7.87733 6.784 7.664C6.61333 7.45067 6.384 7.296 6.096 7.2C5.808 7.09333 5.48267 7.04 5.12 7.04H2.88V4.8L6.496 2.88V2.624H0.832V0.799999H8.768V3.52L5.392 5.312V5.568H5.984C6.48533 5.568 6.97067 5.66933 7.44 5.872C7.92 6.07467 8.31467 6.38933 8.624 6.816C8.93333 7.232 9.088 7.776 9.088 8.448V8.64C9.088 9.36533 8.912 10 8.56 10.544C8.208 11.0773 7.712 11.4933 7.072 11.792C6.44267 12.08 5.70667 12.224 4.864 12.224Z" fill="white"/>
</svg>
