<svg width="22" height="22" viewBox="0 0 22 22" fill="none" xmlns="http://www.w3.org/2000/svg">
<g clip-path="url(#clip0_1225_3920)">
<path d="M19.976 17.1447C19.6433 17.9133 19.2495 18.6208 18.7932 19.2713C18.1712 20.158 17.662 20.7719 17.2695 21.1127C16.6612 21.6722 16.0093 21.9587 15.3113 21.975C14.8102 21.975 14.2059 21.8324 13.5025 21.5432C12.7968 21.2553 12.1482 21.1127 11.5552 21.1127C10.9332 21.1127 10.2662 21.2553 9.55268 21.5432C8.83811 21.8324 8.26246 21.9832 7.82234 21.9981C7.15299 22.0266 6.48582 21.732 5.81986 21.1127C5.39482 20.742 4.86317 20.1064 4.22627 19.2061C3.54294 18.2446 2.98114 17.1297 2.54102 15.8587C2.06966 14.4857 1.83337 13.1563 1.83337 11.8692C1.83337 10.3948 2.15196 9.12321 2.79007 8.0576C3.29157 7.20166 3.95875 6.52647 4.79377 6.03081C5.6288 5.53514 6.53104 5.28256 7.50267 5.2664C8.03432 5.2664 8.73151 5.43085 9.5979 5.75405C10.4619 6.07834 11.0166 6.24279 11.2598 6.24279C11.4416 6.24279 12.0579 6.0505 13.1026 5.66714C14.0905 5.31162 14.9243 5.16441 15.6074 5.2224C17.4583 5.37178 18.8489 6.10142 19.7737 7.41595C18.1183 8.41896 17.2994 9.82379 17.3157 11.626C17.3307 13.0297 17.8399 14.1979 18.8407 15.1254C19.2943 15.5558 19.8008 15.8885 20.3644 16.1248C20.2422 16.4793 20.1132 16.8188 19.976 17.1447ZM15.731 0.440125C15.731 1.54038 15.329 2.56768 14.5278 3.51854C13.5609 4.64892 12.3914 5.30211 11.1232 5.19904C11.107 5.06705 11.0977 4.92813 11.0977 4.78214C11.0977 3.7259 11.5575 2.59552 12.374 1.67127C12.7817 1.20331 13.3002 0.814209 13.9289 0.503814C14.5563 0.19805 15.1497 0.0289566 15.7079 0C15.7242 0.147086 15.731 0.294182 15.731 0.440111V0.440125Z" fill="black"/>
</g>
<defs>
<clipPath id="clip0_1225_3920">
<rect width="22" height="22" fill="white"/>
</clipPath>
</defs>
</svg>
