<svg width="41" height="41" viewBox="0 0 41 41" fill="none" xmlns="http://www.w3.org/2000/svg">
<circle cx="20.5" cy="20.5" r="19" fill="white" stroke="#4F80FF" stroke-width="3"/>
<path d="M28.3125 19.875H28.875C29.1734 19.875 29.4595 19.7565 29.6705 19.5455C29.8815 19.3345 30 19.0484 30 18.75C30 18.4516 29.8815 18.1655 29.6705 17.9545C29.4595 17.7435 29.1734 17.625 28.875 17.625H28.3125V14.25C28.3125 13.6533 28.0754 13.081 27.6535 12.659C27.2315 12.2371 26.6592 12 26.0625 12H15.9375C15.3408 12 14.7685 12.2371 14.3465 12.659C13.9246 13.081 13.6875 13.6533 13.6875 14.25V17.625H13.125C12.8266 17.625 12.5405 17.7435 12.3295 17.9545C12.1185 18.1655 12 18.4516 12 18.75C12 19.0484 12.1185 19.3345 12.3295 19.5455C12.5405 19.7565 12.8266 19.875 13.125 19.875H13.6875V25.5C13.6892 25.8933 13.794 26.2793 13.9914 26.6194C14.1888 26.9596 14.4719 27.2421 14.8125 27.4387V28.875C14.8125 29.1734 14.931 29.4595 15.142 29.6705C15.353 29.8815 15.6391 30 15.9375 30H17.0625C17.3609 30 17.647 29.8815 17.858 29.6705C18.069 29.4595 18.1875 29.1734 18.1875 28.875V27.75H23.25V28.875C23.25 29.1734 23.3685 29.4595 23.5795 29.6705C23.7905 29.8815 24.0766 30 24.375 30H25.5C25.7984 30 26.0845 29.8815 26.2955 29.6705C26.5065 29.4595 26.625 29.1734 26.625 28.875V27.6713C27.1068 27.5469 27.5337 27.2663 27.839 26.8734C28.1444 26.4806 28.3109 25.9976 28.3125 25.5V19.875ZM17.0625 24.9375C16.84 24.9375 16.6225 24.8715 16.4375 24.7479C16.2525 24.6243 16.1083 24.4486 16.0231 24.243C15.938 24.0375 15.9157 23.8113 15.9591 23.593C16.0025 23.3748 16.1097 23.1743 16.267 23.017C16.4243 22.8597 16.6248 22.7525 16.843 22.7091C17.0613 22.6657 17.2875 22.688 17.493 22.7731C17.6986 22.8583 17.8743 23.0025 17.9979 23.1875C18.1215 23.3725 18.1875 23.59 18.1875 23.8125C18.1875 24.1109 18.069 24.397 17.858 24.608C17.647 24.819 17.3609 24.9375 17.0625 24.9375ZM24.9375 24.9375C24.715 24.9375 24.4975 24.8715 24.3125 24.7479C24.1275 24.6243 23.9833 24.4486 23.8981 24.243C23.813 24.0375 23.7907 23.8113 23.8341 23.593C23.8775 23.3748 23.9847 23.1743 24.142 23.017C24.2993 22.8597 24.4998 22.7525 24.718 22.7091C24.9363 22.6657 25.1625 22.688 25.368 22.7731C25.5736 22.8583 25.7493 23.0025 25.8729 23.1875C25.9965 23.3725 26.0625 23.59 26.0625 23.8125C26.0625 24.1109 25.944 24.397 25.733 24.608C25.522 24.819 25.2359 24.9375 24.9375 24.9375ZM26.0625 19.3125H15.9375V14.25H26.0625V19.3125Z" fill="#4F80FF"/>
</svg>
