<svg width="17" height="18" viewBox="0 0 17 18" fill="none" xmlns="http://www.w3.org/2000/svg">
<path d="M16.1299 14.4514L8.2909 6.61243C9.25002 4.91551 9.01024 2.73904 7.57155 1.30035C5.83775 -0.433451 3.03415 -0.433451 1.30035 1.30035C-0.433451 3.03415 -0.433451 5.83775 1.30035 7.57155C2.73904 9.01024 4.91551 9.25002 6.61243 8.2909L10.5412 12.2196L9.28691 13.4739C9.10246 13.6583 9.10246 13.9719 9.28691 14.1563L10.1723 15.0417C10.3567 15.2261 10.6703 15.2261 10.8547 15.0417L12.1089 13.7874L12.8836 14.5621L11.6294 15.8163C11.4449 16.0008 11.4449 16.3143 11.6294 16.4988L12.5147 17.3841C12.6992 17.5686 13.0127 17.5686 13.1972 17.3841L14.4514 16.1299C14.9125 16.591 15.6688 16.591 16.1299 16.1299C16.591 15.6688 16.591 14.9125 16.1299 14.4514Z" fill="#1A2E6C"/>
</svg>
