<svg width="20" height="20" viewBox="0 0 20 20" fill="none" xmlns="http://www.w3.org/2000/svg">
<path d="M10 0.75C4.8996 0.75 0.75 4.8996 0.75 10C0.75 15.1004 4.8996 19.25 10 19.25C15.1004 19.25 19.25 15.1004 19.25 10C19.25 4.8996 15.1004 0.75 10 0.75ZM15.1272 8.1154L9.2196 14.023C9.0398 14.2028 8.7906 14.306 8.5364 14.306V14.706L8.5278 14.306C8.2702 14.3038 8.02 14.1962 7.8412 14.0108L4.8608 10.9216C4.4908 10.5382 4.5018 9.9256 4.8852 9.5556C5.0662 9.3808 5.3044 9.2848 5.5558 9.2848C5.8204 9.2848 6.0674 9.3896 6.2512 9.58L8.5488 11.9614L13.7612 6.7492C13.9436 6.5668 14.1862 6.4662 14.4444 6.4662C14.7024 6.4662 14.945 6.5666 15.1274 6.749C15.5038 7.1258 15.5038 7.7388 15.1272 8.1154Z" fill="#4F80FF"/>
</svg>
