<svg width="25" height="25" viewBox="0 0 25 25" fill="none" xmlns="http://www.w3.org/2000/svg">
<path d="M24.3246 20.3353L16.484 12.4992L24.3186 4.6587C25.2221 3.75818 25.2221 2.30984 24.3216 1.40632L23.5937 0.676892C23.1659 0.238638 22.5806 0 21.9652 0C21.9622 0 21.9622 0 21.9622 0C21.3469 0 20.769 0.241641 20.3368 0.675392L12.4992 8.51894L4.6587 0.684397C3.75968 -0.216126 2.31284 -0.220629 1.40932 0.679894L0.679894 1.40181C0.240139 1.83256 0 2.4179 0 3.03176C0 3.64862 0.24164 4.22945 0.675391 4.6617L8.51893 12.4992L0.682895 20.3398C-0.220628 21.2403 -0.220628 22.6887 0.679894 23.5952L1.40781 24.3231C1.83856 24.7614 2.4224 25 3.03776 25C3.65011 25 4.23545 24.7554 4.6662 24.3246L12.5022 16.4826L20.3398 24.3156C20.784 24.7644 21.3754 24.991 21.9682 24.991C22.5551 24.991 23.1434 24.7674 23.5922 24.3201L24.3201 23.5937C24.7613 23.1659 25 22.5806 25 21.9652C25.003 21.3499 24.7613 20.769 24.3276 20.3353H24.3246Z" fill="#E1E3E7"/>
</svg>
