<svg width="16" height="20" viewBox="0 0 16 20" fill="none" xmlns="http://www.w3.org/2000/svg">
<path d="M6.16889 4.07422H2.07407C1.524 4.07422 0.996447 4.29274 0.607482 4.6817C0.218518 5.07067 0 5.59821 0 6.14829V17.4076C0 17.9576 0.218518 18.4852 0.607482 18.8741C0.996447 19.2631 1.524 19.4816 2.07407 19.4816H9.77778C10.3279 19.4816 10.8554 19.2631 11.2444 18.8741C11.6333 18.4852 11.8519 17.9576 11.8519 17.4076V9.75718L11.68 9.5794L6.34667 4.24607L6.16889 4.07422ZM10.3704 10.5927V17.4076C10.3704 17.5647 10.3079 17.7154 10.1968 17.8266C10.0857 17.9377 9.93494 18.0001 9.77778 18.0001H2.07407C1.91691 18.0001 1.76618 17.9377 1.65505 17.8266C1.54392 17.7154 1.48148 17.5647 1.48148 17.4076V6.14829C1.48148 5.99113 1.54392 5.8404 1.65505 5.72927C1.76618 5.61813 1.91691 5.5557 2.07407 5.5557H5.33333V8.51866C5.33333 9.06874 5.55185 9.59629 5.94082 9.98525C6.32978 10.3742 6.85733 10.5927 7.40741 10.5927H10.3704Z" fill="#4F80FF"/>
<path d="M13.9262 14.4445H13.0373V15.926H13.9262C14.1986 15.926 14.4683 15.8723 14.7199 15.7681C14.9716 15.6639 15.2002 15.5111 15.3928 15.3185C15.5854 15.1259 15.7382 14.8972 15.8424 14.6456C15.9466 14.394 16.0003 14.1243 16.0003 13.8519V6.20152L15.8284 6.02374L10.4951 0.690407L10.3173 0.518555H6.22251C5.67243 0.518555 5.14488 0.737073 4.75592 1.12604C4.36696 1.515 4.14844 2.04255 4.14844 2.59263V2.88893H5.62992V2.59263C5.62992 2.43546 5.69235 2.28474 5.80349 2.1736C5.91462 2.06247 6.06535 2.00004 6.22251 2.00004H9.48177V4.963C9.48177 5.51308 9.70029 6.04063 10.0893 6.42959C10.4782 6.81856 11.0058 7.03707 11.5558 7.03707H14.5188V13.8519C14.5188 14.0091 14.4564 14.1598 14.3452 14.2709C14.2341 14.382 14.0834 14.4445 13.9262 14.4445Z" fill="#4F80FF"/>
</svg>
