<svg width="17" height="10" viewBox="0 0 17 10" fill="none" xmlns="http://www.w3.org/2000/svg">
<path fill-rule="evenodd" clip-rule="evenodd" d="M16.3967 5.28699C14.259 7.95646 11.5052 9.56404 8.49965 9.56404C5.49436 9.56404 2.74094 7.95677 0.602884 5.28793C0.465757 5.11659 0.465757 4.87997 0.602573 4.70863C5.15699 -0.988816 11.87 -0.988816 16.398 4.70863C16.5342 4.88028 16.5339 5.11628 16.3967 5.28699ZM8.49996 1.58177C10.3877 1.58177 11.9179 3.11193 11.9179 4.99968C11.9179 6.88743 10.3877 8.4179 8.49996 8.4179C6.61221 8.4179 5.08174 6.88743 5.08174 4.99968C5.08174 3.11193 6.61221 1.58177 8.49996 1.58177Z" fill="#4F80FF"/>
<path fill-rule="evenodd" clip-rule="evenodd" d="M8.4997 2.61133C8.67289 2.61133 8.84143 2.62998 9.00436 2.66481C8.76183 2.84454 8.6048 3.13278 8.6048 3.45772C8.6048 4.0025 9.04634 4.44404 9.59112 4.44404C10.0348 4.44404 10.4101 4.15113 10.5339 3.74783C10.7584 4.11195 10.8881 4.54074 10.8881 4.9997C10.8881 6.31873 9.81873 7.38807 8.4997 7.38807C7.18067 7.38807 6.11133 6.31873 6.11133 4.9997C6.11133 3.68067 7.18067 2.61133 8.4997 2.61133Z" fill="#4F80FF"/>
</svg>
