<svg width="16" height="16" viewBox="0 0 16 16" fill="none" xmlns="http://www.w3.org/2000/svg">
<path d="M14.9277 1.72919L14.2802 1.08169C14.0972 0.8987 13.7593 0.926852 13.5482 1.18022L11.296 3.41831C10.2826 2.98196 9.17055 2.77082 8.00224 2.77082C4.52545 2.78489 1.51318 4.81184 0.0633423 7.72559C-0.0211141 7.90858 -0.0211141 8.1338 0.0633423 8.28863C0.738993 9.66809 1.75247 10.8082 3.01932 11.6669L1.17535 13.539C0.96421 13.7501 0.936058 14.088 1.07682 14.271L1.72432 14.9185C1.90731 15.1014 2.24513 15.0733 2.45627 14.8199L14.8151 2.46114C15.0825 2.25 15.1107 1.91218 14.9277 1.72919ZM8.74827 5.98016C8.50898 5.92385 8.25561 5.85347 8.01632 5.85347C6.81985 5.85347 5.86268 6.81065 5.86268 8.00711C5.86268 8.2464 5.91898 8.49977 5.98936 8.73907L5.04627 9.66809C4.76475 9.17542 4.60991 8.62646 4.60991 8.00711C4.60991 6.13499 6.11605 4.62886 7.98816 4.62886C8.60751 4.62886 9.15648 4.78369 9.64914 5.06521L8.74827 5.98016Z" fill="#4F80FF"/>
<path d="M15.941 7.72574C15.4483 6.74041 14.8008 5.85362 13.9985 5.13574L11.3803 7.72574V8.00726C11.3803 9.87937 9.87418 11.3855 8.00207 11.3855H7.72055L6.05957 13.0465C6.67892 13.1732 7.32642 13.2576 7.95984 13.2576C11.4366 13.2576 14.4489 11.2307 15.8987 8.30286C16.0254 8.10579 16.0254 7.90873 15.941 7.72574Z" fill="#4F80FF"/>
</svg>
