<svg width="24" height="24" viewBox="0 0 24 24" fill="none" xmlns="http://www.w3.org/2000/svg">
<g clip-path="url(#clip0_1225_3911)">
<path d="M22.7855 12.2532C22.7855 11.5055 22.7249 10.7537 22.5955 10.0181H12.22V14.254H18.1616C17.915 15.6201 17.1228 16.8286 15.9628 17.5966V20.3451H19.5075C21.5891 18.4292 22.7855 15.5999 22.7855 12.2532Z" fill="#4285F4"/>
<path d="M12.22 23.001C15.1868 23.001 17.6887 22.0269 19.5116 20.3455L15.9668 17.597C14.9806 18.268 13.7074 18.6479 12.2241 18.6479C9.35431 18.6479 6.92109 16.7119 6.04805 14.1089H2.39014V16.9422C4.25749 20.6567 8.06091 23.001 12.22 23.001Z" fill="#34A853"/>
<path d="M6.04397 14.1085C5.58319 12.7423 5.58319 11.263 6.04397 9.89684V7.06348H2.3901C0.829928 10.1717 0.829928 13.8336 2.3901 16.9418L6.04397 14.1085Z" fill="#FBBC04"/>
<path d="M12.22 5.35386C13.7883 5.3296 15.304 5.91972 16.4397 7.00295L19.5803 3.8624C17.5917 1.99505 14.9523 0.968406 12.22 1.00074C8.06091 1.00074 4.25749 3.34504 2.39014 7.06357L6.044 9.89694C6.91301 7.28992 9.35027 5.35386 12.22 5.35386Z" fill="#EA4335"/>
</g>
<defs>
<clipPath id="clip0_1225_3911">
<rect width="22" height="22" fill="white" transform="translate(1 1)"/>
</clipPath>
</defs>
</svg>
