<svg width="28" height="26" viewBox="0 0 28 26" fill="none" xmlns="http://www.w3.org/2000/svg">
<path d="M12.9577 22.6565L12.9366 22.6355L12.9144 22.6159C9.4128 19.5183 6.59767 16.9929 4.64827 14.6196C2.71036 12.2603 1.72656 10.1665 1.72656 7.94422C1.72656 4.34814 4.49902 1.57568 8.0951 1.57568C10.0814 1.57568 12.0807 2.5164 13.3665 4.03628L14.13 4.93869L14.8934 4.03628C16.1793 2.5164 18.1786 1.57568 20.1649 1.57568C23.761 1.57568 26.5334 4.34814 26.5334 7.94422C26.5334 10.1665 25.5496 12.2603 23.6117 14.6196C21.6623 16.9929 18.8472 19.5183 15.3456 22.6159L15.3233 22.6355L15.3023 22.6565L14.13 23.8246L12.9577 22.6565Z" stroke="transparent" stroke-width="1"/>
</svg>
