<svg width="24" height="25" viewBox="0 0 24 25" fill="none" xmlns="http://www.w3.org/2000/svg">
<path d="M22.2113 9.93492L12.878 1.76825C12.3753 1.32839 11.6247 1.32839 11.122 1.76825L1.78864 9.93492C1.49929 10.1881 1.33331 10.5539 1.33331 10.9384V22.3333C1.33331 23.0697 1.93027 23.6667 2.66665 23.6667H7.99998C8.73636 23.6667 9.33331 23.0697 9.33331 22.3333V17C9.33331 16.2636 9.93027 15.6667 10.6666 15.6667H13.3333C14.0697 15.6667 14.6666 16.2636 14.6666 17V22.3333C14.6666 23.0697 15.2636 23.6667 16 23.6667H21.3333C22.0697 23.6667 22.6666 23.0697 22.6666 22.3333V10.9384C22.6666 10.5539 22.5007 10.1881 22.2113 9.93492Z" stroke="#3679FF" stroke-width="2" stroke-linecap="round" stroke-linejoin="round"/>
</svg>
