<svg width="26" height="25" viewBox="0 0 26 25" fill="none" xmlns="http://www.w3.org/2000/svg">
<path d="M13.0331 0.000259129C13.7099 0.00970786 14.3585 0.273403 14.8364 0.732673L25.2362 10.7277C26.0293 11.49 26.1775 12.5936 25.8068 13.4539C25.4361 14.3142 24.5207 14.9968 23.399 14.9968H22.5355V22.4968C22.5355 23.8676 21.3574 25 19.9313 25H16.4653V19.1635C16.4653 18.2401 15.692 17.4968 14.7314 17.4968H11.2637C10.3031 17.4968 9.52982 18.2401 9.52982 19.1635V25H6.06379C4.63767 25 3.45792 23.8676 3.45792 22.4968V14.9968H2.59438C1.47273 14.9968 0.565781 14.3142 0.195077 13.4539C-0.175627 12.5936 -0.0341925 11.49 0.758921 10.7277L11.157 0.732673C11.6536 0.255293 12.3304 -0.00947297 13.0331 0.000259129Z" fill="#4F80FF"/>
</svg>
