<svg width="21" height="20" viewBox="0 0 21 20" fill="none" xmlns="http://www.w3.org/2000/svg">
<path d="M8.48007 16.7589L10.7488 8.29168C12.29 8.27759 13.6856 7.25291 14.102 5.69893C14.6038 3.82619 13.4954 1.90635 11.6227 1.40455C9.74994 0.902755 7.8301 2.01117 7.3283 3.88391C6.91191 5.43789 7.6082 7.02309 8.93587 7.8059L7.79882 12.0494L6.44407 11.6864C6.24484 11.6331 6.03012 11.757 5.97674 11.9563L5.7205 12.9125C5.66712 13.1118 5.79109 13.3265 5.99031 13.3799L7.34506 13.7429L7.12085 14.5796L5.76611 14.2166C5.56688 14.1632 5.35216 14.2872 5.29878 14.4864L5.04254 15.4427C4.98916 15.642 5.11312 15.8567 5.31235 15.9101L6.6671 16.2731C6.53364 16.7711 6.83262 17.289 7.33069 17.4224C7.82876 17.5559 8.34661 17.2569 8.48007 16.7589Z" fill="#1A2E6C"/>
<path fill-rule="evenodd" clip-rule="evenodd" d="M11.0982 13.0439C10.9817 13.4232 11.0316 13.834 11.2356 14.1743L13.7925 18.4402C14.1897 19.1031 15.0491 19.3183 15.7119 18.921L19.3143 16.7618C19.9771 16.3646 20.1924 15.5052 19.7951 14.8424L17.2382 10.5765C17.0343 10.2362 16.6954 9.99847 16.3061 9.92249L13.5335 9.38156C12.8311 9.2445 12.1384 9.65966 11.9281 10.3438L11.0982 13.0439ZM15.0679 13.7624C15.6323 13.4241 15.8157 12.6925 15.4775 12.1282C15.1393 11.564 14.4076 11.3809 13.8432 11.7192C13.2788 12.0575 13.0954 12.7891 13.4335 13.3533C13.7717 13.9176 14.5034 14.1007 15.0679 13.7624Z" fill="#1A2E6C"/>
</svg>
