<svg width="77" height="49" viewBox="0 0 77 49" fill="none" xmlns="http://www.w3.org/2000/svg">
<path d="M4.03207 42.137C5.65014 44.6228 7.61717 46.8484 9.86134 48.7977C11.569 47.4205 13.4464 46.4107 15.2707 45.445C15.9863 45.0783 16.7012 44.7031 17.4075 44.3009C18.4882 43.69 19.5723 43.1214 20.7087 42.7023C18.4924 40.2688 16.5415 37.6073 14.898 34.7421C13.438 32.1979 12.2373 29.5229 11.2969 26.7531L0 33.1156C0.866912 36.3255 2.21713 39.3563 4.03207 42.137Z" fill="#4F80FF"/>
<path d="M22.5363 42.1962C23.3711 42.0415 24.2423 41.9799 25.1768 42.0745C28.6546 42.4319 31.829 43.8894 38.1678 46.7867L38.7576 47.0546C40.412 47.8235 41.3237 48.2434 42.7449 48.3685C45.9455 48.6634 48.5657 47.1796 49.817 46.464C55.2086 43.3884 63.4874 37.7019 73.7518 30.0214C75.1104 28.8587 75.9866 27.5093 76.0407 26.427C76.0762 25.5778 75.7813 24.9069 75.1645 24.4152C74.2342 23.6817 72.6609 23.4671 71.2482 23.8786C68.1903 24.7726 66.7953 25.6851 64.8646 26.9542C64.105 27.4553 63.2373 28.018 62.1642 28.6526C61.1511 31.0099 58.792 32.5942 56.5132 32.8283L55.3058 32.8376C55.234 32.9001 55.163 32.9626 55.0734 32.9981C54.0096 33.5346 53.1419 33.9909 52.4093 34.3661C49.79 35.7163 48.869 36.1903 47.8762 36.1903C47.7418 36.1903 47.6083 36.181 47.474 36.1633C46.553 36.056 40.7592 34.9744 40.0622 33.8566C39.9194 33.6149 39.5881 32.7657 39.9819 31.9968C40.3393 31.2998 41.1082 30.9238 41.9041 31.0581L56.5132 31.0404C58.7667 31.0404 60.5994 29.2702 60.5994 27.097C60.5994 24.9331 58.8292 23.2432 56.5673 23.2432H43.703H42.0486C41.0558 23.2432 40.0723 22.9483 39.1961 22.3941C36.3714 20.5985 30.6047 17.8271 23.8367 19.5348C21.2351 20.1871 18.8743 21.4663 16.6217 23.4418C15.9424 24.0231 15.209 24.5504 14.4316 24.9889L12.7992 25.9082C13.7185 28.6821 14.9065 31.3598 16.3649 33.9013C18.0894 36.9077 20.1595 39.6867 22.5363 42.1962Z" fill="#4F80FF"/>
<circle cx="56" cy="5" r="5" fill="#4F80FF"/>
<circle cx="38" cy="10" r="5" fill="#4F80FF"/>
</svg>
