<svg width="12" height="20" viewBox="0 0 12 20" fill="none" xmlns="http://www.w3.org/2000/svg">
<path fill-rule="evenodd" clip-rule="evenodd" d="M8.30933 13.2255L8.30672 13.2299C7.9347 13.864 7.81395 14.3314 7.81395 14.659C7.81395 15.0235 7.91119 15.3112 8.09532 15.5637C8.35747 15.9055 8.61345 16.1273 8.85311 16.2662C9.2786 16.5015 9.67042 16.7317 10.0274 16.9571C10.2306 17.0775 10.4454 17.2241 10.6245 17.4022C10.7801 17.5568 11.093 17.9159 11.093 18.4509C11.093 18.9671 10.8425 19.4492 10.3709 19.7339C9.99305 19.9619 9.5759 20 9.27907 20C8.14884 20 7.06772 19.391 6.0768 18.5393L6.07307 18.5361L6.06938 18.5329C5.63861 18.1563 5.27477 17.7451 4.99272 17.3005C4.40913 18.029 3.97055 18.556 3.68243 18.8728C3.4477 19.139 3.21223 19.3787 2.9822 19.5617C2.86566 19.6544 2.72569 19.7526 2.56653 19.8317C2.41577 19.9067 2.17747 20 1.88372 20C1.10385 20 0.625845 19.4682 0.386049 19.0867L0.363945 19.0515L0.344433 19.0149C0.133984 18.6197 0 18.1807 0 17.711C0 17.5215 0.0389596 17.3098 0.0688206 17.1605C0.104856 16.9802 0.156173 16.7588 0.220252 16.502C0.348744 15.987 0.538657 15.2894 0.787816 14.4146C1.27369 12.6935 1.76322 10.6195 2.25542 8.18809C2.74016 5.79344 2.97674 3.65967 2.97674 1.78035C2.97674 1.61642 2.98644 1.43563 3.02054 1.25767C3.04885 1.10986 3.11288 0.857371 3.29024 0.61714C3.68253 0.0679559 4.29786 0 4.60465 0C5.07895 0 5.43947 0.221439 5.66945 0.431036C5.88445 0.626979 6.04539 0.863692 6.16846 1.08381C6.46932 1.57753 6.62791 2.12462 6.62791 2.7052C6.62791 4.91233 6.24412 7.59665 5.49476 10.7446C6.41344 9.55732 7.22252 8.59259 7.9207 7.85507L7.9235 7.85211L7.92633 7.84916C8.26465 7.49678 8.57072 7.20248 8.83526 6.98817C8.96627 6.88204 9.11339 6.7739 9.26881 6.68673C9.39168 6.61782 9.66892 6.47399 10.0233 6.47399C10.6186 6.47399 11.0901 6.75658 11.4206 7.10709C11.6608 7.34987 12 7.77969 12 8.36994C12 8.6902 11.8756 8.93682 11.8246 9.0328C11.7569 9.16029 11.6756 9.27671 11.6016 9.37392C11.4519 9.57065 11.2521 9.79204 11.0226 10.0284C10.5875 10.4764 10.106 10.9706 9.57823 11.5107C9.12882 11.9707 8.70492 12.5372 8.31191 13.221L8.30933 13.2255ZM9.346 17.6843C9.346 17.6843 9.34302 17.685 9.33625 17.6857C9.34248 17.6845 9.346 17.6843 9.346 17.6843Z" fill="white"/>
</svg>
