<svg width="41" height="41" viewBox="0 0 41 41" fill="none" xmlns="http://www.w3.org/2000/svg">
<circle cx="20.5" cy="20.5" r="19" fill="white" stroke="#4F80FF" stroke-width="3"/>
<path d="M25.438 11H15.8405C14.2696 11 13 12.2696 13 13.8405V25.181C13 26.7519 14.2696 28.0215 15.8405 28.0215H25.4595C27.0304 28.0215 28.3 26.7519 28.3 25.181V13.8405C28.2785 12.2696 27.0089 11 25.438 11ZM17.0886 23.9544C16.3785 23.9544 15.7759 23.3734 15.7759 22.6418C15.7759 21.9101 16.357 21.3291 17.0886 21.3291C17.7987 21.3291 18.4013 21.9101 18.4013 22.6418C18.4013 23.3734 17.7987 23.9544 17.0886 23.9544ZM24.1899 23.9544C23.4797 23.9544 22.8772 23.3734 22.8772 22.6418C22.8772 21.9101 23.4582 21.3291 24.1899 21.3291C24.9 21.3291 25.5025 21.9101 25.5025 22.6418C25.5025 23.3734 24.9215 23.9544 24.1899 23.9544ZM25.8683 18.8114H15.4101V13.8405C15.4101 13.6038 15.6038 13.4316 15.819 13.4316H25.438C25.6747 13.4316 25.8468 13.6253 25.8468 13.8405V18.8114H25.8683Z" fill="#4F80FF"/>
<path d="M25.782 29.3342H15.4959C15.2377 29.3342 15.001 29.5494 15.001 29.8291V30.9481C15.001 31.2063 15.2162 31.443 15.4959 31.443H25.8035C26.0617 31.443 26.2984 31.2278 26.2984 30.9481V29.8291C26.2769 29.5709 26.0617 29.3342 25.782 29.3342Z" fill="#4F80FF"/>
</svg>
