<svg width="24" height="24" viewBox="0 0 24 24" fill="none" xmlns="http://www.w3.org/2000/svg">
<path d="M18 21C19.6569 21 21 19.6569 21 18C21 16.3431 19.6569 15 18 15C16.3431 15 15 16.3431 15 18C15 19.6569 16.3431 21 18 21Z" stroke="url(#paint0_linear_792_2304)" stroke-width="2" stroke-linecap="round" stroke-linejoin="round"/>
<path d="M9 13.5L15 16.5" stroke="url(#paint1_linear_792_2304)" stroke-width="2" stroke-linecap="round" stroke-linejoin="round"/>
<path d="M6 15C7.65685 15 9 13.6569 9 12C9 10.3431 7.65685 9 6 9C4.34315 9 3 10.3431 3 12C3 13.6569 4.34315 15 6 15Z" stroke="url(#paint2_linear_792_2304)" stroke-width="2" stroke-linecap="round" stroke-linejoin="round"/>
<path d="M15 7.5L9 10.5" stroke="url(#paint3_linear_792_2304)" stroke-width="2" stroke-linecap="round" stroke-linejoin="round"/>
<path d="M18 9C19.6569 9 21 7.65685 21 6C21 4.34315 19.6569 3 18 3C16.3431 3 15 4.34315 15 6C15 7.65685 16.3431 9 18 9Z" stroke="url(#paint4_linear_792_2304)" stroke-width="2" stroke-linecap="round" stroke-linejoin="round"/>
<defs>
<linearGradient id="paint0_linear_792_2304" x1="18" y1="14.7022" x2="18" y2="21.4853" gradientUnits="userSpaceOnUse">
<stop offset="0.0434107" stop-color="#81A3F9"/>
<stop offset="1" stop-color="#3462D8"/>
</linearGradient>
<linearGradient id="paint1_linear_792_2304" x1="12" y1="13.3511" x2="12" y2="16.7426" gradientUnits="userSpaceOnUse">
<stop offset="0.0434107" stop-color="#81A3F9"/>
<stop offset="1" stop-color="#3462D8"/>
</linearGradient>
<linearGradient id="paint2_linear_792_2304" x1="6" y1="8.70221" x2="6" y2="15.4853" gradientUnits="userSpaceOnUse">
<stop offset="0.0434107" stop-color="#81A3F9"/>
<stop offset="1" stop-color="#3462D8"/>
</linearGradient>
<linearGradient id="paint3_linear_792_2304" x1="12" y1="7.3511" x2="12" y2="10.7426" gradientUnits="userSpaceOnUse">
<stop offset="0.0434107" stop-color="#81A3F9"/>
<stop offset="1" stop-color="#3462D8"/>
</linearGradient>
<linearGradient id="paint4_linear_792_2304" x1="18" y1="2.70221" x2="18" y2="9.48529" gradientUnits="userSpaceOnUse">
<stop offset="0.0434107" stop-color="#81A3F9"/>
<stop offset="1" stop-color="#3462D8"/>
</linearGradient>
</defs>
</svg>
