<svg width="32" height="32" viewBox="0 0 32 32" fill="none" xmlns="http://www.w3.org/2000/svg">
<path d="M16 28C22.6274 28 28 22.6274 28 16C28 9.37258 22.6274 4 16 4C9.37258 4 4 9.37258 4 16C4 22.6274 9.37258 28 16 28Z" stroke="#272832" stroke-width="2" stroke-linecap="round" stroke-linejoin="round"/>
<path d="M22.9553 25.7764C21.2464 23.8678 18.7634 22.6667 15.9998 22.6667C13.2363 22.6667 10.7533 23.8678 9.04431 25.7764" stroke="#272832" stroke-width="2" stroke-linecap="round" stroke-linejoin="round"/>
<path d="M16 18.6667C18.2091 18.6667 20 16.8759 20 14.6667C20 12.4576 18.2091 10.6667 16 10.6667C13.7909 10.6667 12 12.4576 12 14.6667C12 16.8759 13.7909 18.6667 16 18.6667Z" stroke="#272832" stroke-width="2" stroke-linecap="round" stroke-linejoin="round"/>
</svg>
