<svg width="16" height="16" viewBox="0 0 16 16" fill="none" xmlns="http://www.w3.org/2000/svg">
<path d="M15.3283 7.32848C14.9574 7.32848 14.6568 7.62912 14.6568 8C14.6568 11.6706 11.6706 14.6568 8.00016 14.6568C4.32944 14.6568 1.3432 11.6706 1.3432 8C1.3432 4.32944 4.32944 1.34336 8 1.34336C9.40384 1.34336 10.7538 1.7848 11.873 2.58592H10.9864C10.6155 2.58592 10.3147 2.88656 10.3147 3.2576C10.3147 3.62848 10.6155 3.92912 10.9864 3.92912H13.5722C13.943 3.92912 14.2437 3.62848 14.2437 3.2576V0.67168C14.2437 0.30064 13.9432 0 13.5722 0C13.2011 0 12.9005 0.30064 12.9005 0.67168V1.67728C11.5098 0.59856 9.79168 0 8 0C5.8632 0 3.85408 0.83216 2.3432 2.3432C0.832 3.85424 0 5.8632 0 8C0 10.1368 0.832 12.1459 2.3432 13.6568C3.85408 15.168 5.8632 16 8 16C10.1366 16 12.1458 15.168 13.6566 13.6568C15.1678 12.1459 16 10.1368 16 8C16 7.62912 15.6992 7.32848 15.3283 7.32848Z" fill="white"/>
</svg>
