<svg width="41" height="41" viewBox="0 0 41 41" fill="none" xmlns="http://www.w3.org/2000/svg">
<circle cx="20.5" cy="20.5" r="19" fill="white" stroke="#4F80FF" stroke-width="3"/>
<path fill-rule="evenodd" clip-rule="evenodd" d="M13.7811 14.3018V23.1775C13.8166 24.5266 14.4556 25.2012 15.5207 25.2722L13 29H15.4142L15.9467 27.8284H24.716L25.213 29H27.6627L25.1065 25.2722C26.2071 25.2012 26.8107 24.5266 26.8462 23.1775L26.8817 14.3018C25.568 9.89941 15.0592 9.89941 13.7811 14.3018ZM25.071 22.503C25.568 22.503 25.9941 22.8935 25.9941 23.3905C25.9941 23.8876 25.568 24.2781 25.071 24.2781C24.574 24.2781 24.1834 23.8876 24.1834 23.3905C24.1834 22.8935 24.574 22.503 25.071 22.503ZM15.5207 22.503C16.0178 22.503 16.4083 22.8935 16.4083 23.3905C16.4083 23.8876 16.0178 24.2781 15.5207 24.2781C15.0237 24.2781 14.6331 23.8876 14.6331 23.3905C14.6331 22.8935 15.0237 22.503 15.5207 22.503ZM16.4438 26.4438H24.1834L23.6154 25.2012H17.0473L16.4438 26.4438ZM14.9527 14.3728H25.6746V18.0296H14.9527V14.3728ZM18.5385 11.9231H22.1243C22.5148 11.9231 22.8343 12.2426 22.8343 12.6331C22.8343 13.0237 22.5148 13.3432 22.1243 13.3432H18.5385C18.1479 13.3432 17.8284 13.0237 17.8284 12.6331C17.8284 12.2426 18.1479 11.9231 18.5385 11.9231Z" fill="#4F80FF"/>
</svg>
