<svg width="7" height="12" viewBox="0 0 7 12" fill="none" xmlns="http://www.w3.org/2000/svg">
<path d="M1.04263 1.04172C0.981915 1.10204 0.933716 1.17376 0.9008 1.25277C0.867813 1.33195 0.85083 1.41688 0.85083 1.50265C0.85083 1.58842 0.867812 1.67335 0.9008 1.75253C0.933775 1.83168 0.982087 1.90351 1.04295 1.9639C1.04298 1.96393 1.043 1.96395 1.04303 1.96397L5.08434 6.00043L1.04265 10.0372L1.04259 10.0373C0.982065 10.0978 0.934053 10.1697 0.901297 10.2488C0.868541 10.3279 0.851682 10.4126 0.851682 10.4982C0.851682 10.5838 0.868541 10.6686 0.901297 10.7476C0.934053 10.8267 0.982065 10.8986 1.04259 10.9591C1.10311 11.0196 1.17497 11.0676 1.25405 11.1004C1.33313 11.1331 1.41788 11.15 1.50348 11.15C1.58908 11.15 1.67383 11.1331 1.75291 11.1004C1.83199 11.0676 1.90385 11.0196 1.96437 10.9591L6.46171 6.46175C6.4618 6.46166 6.46189 6.46157 6.46199 6.46148C6.52276 6.40113 6.571 6.32937 6.60394 6.25031C6.63692 6.17113 6.65391 6.0862 6.65391 6.00043C6.65391 5.91465 6.63692 5.82973 6.60394 5.75055C6.571 5.67149 6.52276 5.59972 6.46199 5.53938C6.4619 5.53929 6.4618 5.53919 6.46171 5.5391L1.9648 1.04219C1.96472 1.04211 1.96464 1.04203 1.96456 1.04194C1.90421 0.981165 1.83243 0.932912 1.75336 0.89997C1.67418 0.866983 1.58926 0.85 1.50348 0.85C1.41771 0.85 1.33278 0.866983 1.2536 0.89997C1.17463 0.932871 1.10293 0.981045 1.04263 1.04172ZM1.04263 1.04172C1.04247 1.04188 1.04231 1.04204 1.04216 1.04219L1.14866 1.14783L1.04303 1.04133C1.04289 1.04146 1.04276 1.04159 1.04263 1.04172Z" fill="#4F80FF" stroke="#4F80FF" stroke-width="0.3"/>
</svg>
