<svg width="16" height="16" viewBox="0 0 16 16" fill="none" xmlns="http://www.w3.org/2000/svg">
<path d="M4.01753 3.95237C4.30834 3.66691 4.57417 3.87208 4.86141 4.16289L8.50815 7.46708C8.64561 7.60691 8.72189 7.79561 8.72022 7.99168C8.71855 8.18774 8.63906 8.37512 8.49923 8.51258C8.35941 8.65003 8.1707 8.72632 7.97464 8.72464C7.77857 8.72297 7.5912 8.64348 7.45374 8.50365L4.22984 4.77663C3.94438 4.48582 3.72671 4.2414 4.01753 3.95237Z" fill="#4F80FF"/>
<path d="M7.9924 0.000609869C7.89004 -0.00356237 7.78794 0.0137087 7.69264 0.0513151C7.59735 0.0889214 7.51096 0.146032 7.43904 0.218984C7.36711 0.291936 7.31123 0.379117 7.27497 0.474935C7.23872 0.570753 7.2229 0.673091 7.22852 0.775384C7.23414 0.877677 7.26108 0.977665 7.30761 1.06893C7.35414 1.1602 7.41924 1.24074 7.49873 1.30537C7.57822 1.37 7.67033 1.41731 7.76918 1.44424C7.86802 1.47118 7.9714 1.47716 8.07269 1.4618C9.57493 1.47957 11.0251 2.01466 12.1789 2.9769C13.3327 3.93914 14.1194 5.26969 14.4066 6.74434C14.6938 8.21898 14.4639 9.74755 13.7556 11.0725C13.0473 12.3974 11.9039 13.4376 10.5181 14.0178C9.13237 14.5981 7.58893 14.6829 6.14793 14.2579C4.70693 13.833 3.45647 12.9243 2.60729 11.6849C1.75811 10.4456 1.36212 8.95141 1.48605 7.45418C1.60999 5.95694 2.24628 4.54821 3.28768 3.46537C3.36686 3.40375 3.43256 3.32653 3.4807 3.2385C3.52884 3.15047 3.55841 3.0535 3.56756 2.95358C3.57672 2.85367 3.56527 2.75294 3.53393 2.65762C3.50259 2.56231 3.45202 2.47444 3.38535 2.39946C3.31869 2.32447 3.23734 2.26397 3.14635 2.22169C3.05536 2.17941 2.95666 2.15625 2.85636 2.15365C2.75606 2.15104 2.65629 2.16905 2.56323 2.20656C2.47017 2.24407 2.3858 2.30028 2.31534 2.3717C1.01402 3.68591 0.208257 5.4104 0.0351369 7.25175C-0.137984 9.09311 0.332238 10.9376 1.36579 12.4713C2.39935 14.005 3.93238 15.1333 5.70405 15.664C7.47572 16.1948 9.37657 16.0954 11.0832 15.3826C12.7898 14.6698 14.1967 13.3877 15.0645 11.7545C15.9324 10.1213 16.2076 8.23785 15.8432 6.42462C15.4789 4.61139 14.4975 2.9804 13.0662 1.80918C11.6348 0.637958 9.84187 -0.00114663 7.9924 0.000609869Z" fill="#4F80FF"/>
</svg>
