<svg width="18" height="20" viewBox="0 0 18 20" fill="none" xmlns="http://www.w3.org/2000/svg">
<path d="M8.67446 9.23076C11.2235 9.23076 13.2898 7.16438 13.2898 4.61538C13.2898 2.06638 11.2235 0 8.67446 0C6.12546 0 4.05908 2.06638 4.05908 4.61538C4.05908 7.16438 6.12546 9.23076 8.67446 9.23076Z" fill="#1A2E6C"/>
<path d="M17.1173 16.2631C16.393 14.6282 15.2096 13.2388 13.7108 12.2636C12.2121 11.2883 10.4624 10.7692 8.67424 10.7692C6.88611 10.7692 5.13643 11.2883 3.63766 12.2636C2.13889 13.2388 0.955496 14.6282 0.231175 16.2631C0.0497484 16.6693 -0.0268676 17.1145 0.00834235 17.558C0.0435523 18.0015 0.189463 18.4291 0.432713 18.8016C0.671953 19.1703 0.999786 19.4732 1.38625 19.6825C1.77272 19.8919 2.20549 20.001 2.64502 20H14.7035C15.1431 20.0009 15.576 19.8915 15.9625 19.6818C16.349 19.4722 16.6767 19.169 16.9158 18.8C17.1588 18.4277 17.3045 18.0004 17.3397 17.5572C17.3749 17.1141 17.2985 16.6691 17.1173 16.2631Z" fill="#1A2E6C"/>
</svg>
