<svg width="28" height="28" viewBox="0 0 28 28" fill="none" xmlns="http://www.w3.org/2000/svg">
<path d="M14.0009 15C16.9768 15 19 12.7611 19 9.99986C19 7.23801 16.9768 5 14.0009 5C11.0232 5 9 7.23801 9 9.99986C9 12.7611 11.0232 15 14.0009 15Z" fill="#1A2E6C"/>
<path d="M18.0513 15.1368C16.9804 16.0985 15.5786 16.6669 14.0006 16.6669C12.422 16.6669 11.0192 16.0985 9.94839 15.1368C7.40132 16.5297 5.64292 19.1738 5.50977 22.2485C7.6639 24.4649 10.673 25.8462 14 25.8462C17.327 25.8462 20.3361 24.4649 22.4908 22.2488C22.3577 19.1738 20.5983 16.5297 18.0513 15.1368Z" fill="#1A2E6C"/>
</svg>
