<svg width="30" height="30" viewBox="0 0 30 30" fill="none" xmlns="http://www.w3.org/2000/svg">
<path d="M14.6732 14.0769C17.732 14.0769 20.2117 11.5973 20.2117 8.53845C20.2117 5.47965 17.732 3 14.6732 3C11.6144 3 9.13477 5.47965 9.13477 8.53845C9.13477 11.5973 11.6144 14.0769 14.6732 14.0769Z" fill="#1A2E6C"/>
<path d="M24.8054 22.5157C23.9362 20.5539 22.5162 18.8866 20.7176 17.7163C18.9191 16.546 16.8195 15.923 14.6737 15.923C12.528 15.923 10.4284 16.546 8.62984 17.7163C6.83131 18.8866 5.41124 20.5539 4.54206 22.5157C4.32435 23.0032 4.23241 23.5375 4.27466 24.0696C4.31691 24.6018 4.492 25.1149 4.7839 25.5619C5.07099 26.0043 5.46439 26.3678 5.92815 26.619C6.39191 26.8702 6.91124 27.0012 7.43867 27H21.9088C22.4364 27.001 22.9559 26.8698 23.4196 26.6182C23.8834 26.3666 24.2767 26.0028 24.5636 25.56C24.8552 25.1133 25.0301 24.6005 25.0723 24.0687C25.1146 23.5369 25.0228 23.0029 24.8054 22.5157Z" fill="#1A2E6C"/>
</svg>