<svg width="137" height="50" viewBox="0 0 137 50" fill="none" xmlns="http://www.w3.org/2000/svg">
<path fill-rule="evenodd" clip-rule="evenodd" d="M20.8258 33.0636L20.8193 33.0748C19.8869 34.6599 19.5843 35.8286 19.5843 36.6474C19.5843 37.5588 19.828 38.278 20.2895 38.9091C20.9465 39.7637 21.5881 40.3184 22.1887 40.6656C23.2551 41.2537 24.2372 41.8293 25.1319 42.3927C25.6412 42.6939 26.1796 43.0603 26.6285 43.5055C27.0183 43.8921 27.8027 44.7898 27.8027 46.1272C27.8027 47.4178 27.1748 48.623 25.9928 49.3346C25.0458 49.9049 24.0003 50 23.2563 50C20.4236 50 17.714 48.4774 15.2304 46.3484L15.2211 46.3404L15.2118 46.3323C14.1322 45.3908 13.2203 44.3628 12.5133 43.2512C11.0507 45.0725 9.95147 46.3901 9.22935 47.1821C8.64104 47.8476 8.05086 48.4469 7.47436 48.9042C7.18227 49.136 6.83145 49.3815 6.43254 49.5793C6.05468 49.7666 5.45744 50 4.72121 50C2.76659 50 1.56857 48.6704 0.967561 47.7168L0.912163 47.6289L0.863258 47.5372C0.335807 46.5492 0 45.4518 0 44.2775C0 43.8037 0.0976452 43.2746 0.172486 42.9012C0.262804 42.4505 0.391418 41.8971 0.552021 41.255C0.874064 39.9675 1.35005 38.2235 1.97452 36.0365C3.19228 31.7338 4.41919 26.5489 5.65279 20.4702C6.86771 14.4836 7.46067 9.14916 7.46067 4.45087C7.46067 4.04104 7.48498 3.58906 7.57043 3.14419C7.6414 2.77466 7.80188 2.14343 8.2464 1.54285C9.22959 0.16989 10.7718 0 11.5407 0C12.7295 0 13.633 0.553598 14.2094 1.07759C14.7483 1.56745 15.1517 2.15923 15.4601 2.70953C16.2142 3.94383 16.6117 5.31154 16.6117 6.76301C16.6117 12.2808 15.6498 18.9916 13.7716 26.8616C16.0741 23.8933 18.1019 21.4815 19.8518 19.6377L19.8588 19.6303L19.8659 19.6229C20.7138 18.742 21.481 18.0062 22.144 17.4704C22.4723 17.2051 22.8411 16.9348 23.2306 16.7168C23.5386 16.5446 24.2334 16.185 25.1215 16.185C26.6135 16.185 27.7953 16.8915 28.6237 17.7677C29.2257 18.3747 30.0758 19.4492 30.0758 20.9249C30.0758 21.7255 29.7642 22.342 29.6363 22.582C29.4665 22.9007 29.2629 23.1918 29.0774 23.4348C28.7021 23.9266 28.2014 24.4801 27.6261 25.0711C26.5356 26.1911 25.3289 27.4264 24.0061 28.7768C22.8798 29.9267 21.8173 31.3429 20.8323 33.0524L20.8258 33.0636ZM26.5204 19.7688C26.0929 19.3064 25.6266 19.0751 25.1215 19.0751C24.6552 19.0751 23.606 19.9229 21.974 21.6185C19.317 24.4182 15.9306 28.6547 11.8149 34.3282C10.7849 35.748 9.70924 37.2578 8.58791 38.8576C7.89911 39.8403 7.19307 40.8569 6.4698 41.9075C6.546 41.671 6.6216 41.4354 6.6966 41.2006C7.60102 38.3685 8.41781 35.6541 9.14697 33.0575C12.1805 22.2547 13.6973 13.4899 13.6973 6.76301C13.6973 6.08344 13.561 5.43509 13.2882 4.81794C13.2528 4.73774 13.215 4.65806 13.175 4.57891C13.1533 4.53607 13.131 4.49339 13.1079 4.45087C13.0553 4.35372 12.9992 4.25738 12.9396 4.16185C12.4733 3.31407 12.007 2.89017 11.5407 2.89017C11.0744 2.89017 10.7636 3.00578 10.6081 3.237C10.4527 3.42967 10.375 3.8343 10.375 4.45087C10.375 4.77028 10.3724 5.0922 10.3672 5.41662C10.3666 5.45026 10.3661 5.48393 10.3655 5.51762C10.283 10.1769 9.6644 15.3512 8.50983 21.0405C7.26638 27.1676 6.02294 32.4277 4.77949 36.8208C3.53605 41.1753 2.91432 43.6609 2.91432 44.2775C2.91432 44.894 3.08918 45.5299 3.4389 46.185C3.82748 46.8015 4.25491 47.1098 4.72121 47.1098C5.1875 47.1098 5.96465 46.4933 7.05267 45.2601C7.44497 44.8308 7.97149 44.217 8.63223 43.4188C8.64054 43.4087 8.64887 43.3987 8.65723 43.3886C8.82034 43.1914 8.99155 42.983 9.17086 42.7636C9.21582 42.7086 9.26128 42.6528 9.30726 42.5964C9.79157 42.002 10.3324 41.33 10.9296 40.5804C11.0134 40.4753 11.0982 40.3687 11.1841 40.2606C11.8156 39.4661 12.507 38.5892 13.2582 37.6301C13.4212 37.422 13.587 37.21 13.7556 36.9942V37.6301C13.7556 38.7282 13.9937 39.7816 14.4698 40.7902C15.0296 41.976 15.9184 43.0999 17.1362 44.1618C18.4862 45.3191 19.7486 46.1357 20.9235 46.6115C21.3378 46.7793 21.7413 46.9047 22.1339 46.9878C22.1646 46.9943 22.1952 47.0005 22.2258 47.0065C22.2554 47.0123 22.285 47.0178 22.3144 47.0231C22.6358 47.0809 22.9498 47.1098 23.2563 47.1098C24.3443 47.1098 24.8883 46.7823 24.8883 46.1272C24.8883 45.7803 24.4609 45.3565 23.606 44.8555C23.4912 44.783 23.3746 44.7102 23.2563 44.6371C23.1438 44.5675 23.0297 44.4976 22.914 44.4274C22.6834 44.2875 22.4465 44.1463 22.2034 44.0039C21.7416 43.7335 21.2571 43.4586 20.75 43.1792C19.7397 42.6012 18.8071 41.7534 17.9522 40.6358C17.0974 39.4798 16.6699 38.1503 16.6699 36.6474C16.6699 35.1445 17.2139 33.4682 18.302 31.6185C19.39 29.7303 20.5946 28.1118 21.9157 26.763C23.2369 25.4143 24.4415 24.1811 25.5295 23.0636C26.6175 21.946 27.1615 21.2331 27.1615 20.9249C27.1615 20.578 26.9478 20.1927 26.5204 19.7688ZM23.4241 44.2108C23.4241 44.2108 23.4166 44.2126 23.3996 44.2142C23.4152 44.2113 23.4241 44.2108 23.4241 44.2108Z" fill="url(#paint0_linear)"/>
<path d="M35.3696 46.0576C34.7708 46.0576 34.2718 45.8927 33.8726 45.5628C33.4956 45.2109 33.3071 44.716 33.3071 44.0782V31.3442C33.3071 30.7064 33.4956 30.2225 33.8726 29.8926C34.2718 29.5627 34.7708 29.3978 35.3696 29.3978C35.9683 29.3978 36.4673 29.5627 36.8665 29.8926C37.2657 30.2225 37.4653 30.7064 37.4653 31.3442V44.0782C37.4653 44.716 37.2657 45.2109 36.8665 45.5628C36.4673 45.8927 35.9683 46.0576 35.3696 46.0576ZM35.3696 26.4617C34.6155 26.4617 34.0168 26.2637 33.5732 25.8678C33.1297 25.45 32.9079 24.9111 32.9079 24.2513C32.9079 23.5915 33.1297 23.0637 33.5732 22.6678C34.0168 22.2719 34.6155 22.074 35.3696 22.074C36.1014 22.074 36.6891 22.2719 37.1326 22.6678C37.5983 23.0637 37.8312 23.5915 37.8312 24.2513C37.8312 24.9111 37.6094 25.45 37.1659 25.8678C36.7223 26.2637 36.1236 26.4617 35.3696 26.4617Z" fill="url(#paint1_linear)"/>
<path d="M50.3911 42.9896C51.5 43.0556 52.0544 43.5504 52.0544 44.4741C52.0544 45.002 51.8326 45.4088 51.3891 45.6947C50.9677 45.9587 50.3579 46.0686 49.5595 46.0246L48.6613 45.9587C44.9356 45.6947 43.0727 43.7154 43.0727 40.0205V32.8287H41.4094C40.8107 32.8287 40.3449 32.6967 40.0123 32.4328C39.7018 32.1689 39.5466 31.784 39.5466 31.2782C39.5466 30.7723 39.7018 30.3874 40.0123 30.1235C40.3449 29.8596 40.8107 29.7277 41.4094 29.7277H43.0727V26.6926C43.0727 26.0988 43.2612 25.6259 43.6382 25.274C44.0152 24.9221 44.5253 24.7462 45.1684 24.7462C45.7894 24.7462 46.2884 24.9221 46.6654 25.274C47.0424 25.6259 47.2309 26.0988 47.2309 26.6926V29.7277H50.0585C50.6573 29.7277 51.1119 29.8596 51.4224 30.1235C51.755 30.3874 51.9214 30.7723 51.9214 31.2782C51.9214 31.784 51.755 32.1689 51.4224 32.4328C51.1119 32.6967 50.6573 32.8287 50.0585 32.8287H47.2309V40.3174C47.2309 41.9449 47.9849 42.8136 49.493 42.9236L50.3911 42.9896Z" fill="url(#paint2_linear)"/>
<path d="M64.7885 46.0576C64.1897 46.0576 63.6907 45.8927 63.2915 45.5628C62.9145 45.2109 62.726 44.716 62.726 44.0782V24.3833C62.726 23.7455 62.9145 23.2616 63.2915 22.9317C63.6907 22.6018 64.1897 22.4369 64.7885 22.4369C65.3873 22.4369 65.8862 22.6018 66.2854 22.9317C66.6846 23.2616 66.8842 23.7455 66.8842 24.3833V44.0782C66.8842 44.716 66.6846 45.2109 66.2854 45.5628C65.8862 45.8927 65.3873 46.0576 64.7885 46.0576Z" fill="url(#paint3_linear)"/>
<path d="M83.2565 41.4391C83.6335 41.4391 83.9329 41.582 84.1547 41.8679C84.3986 42.1538 84.5206 42.5387 84.5206 43.0226C84.5206 43.7044 84.1103 44.2762 83.2897 44.738C82.5357 45.1559 81.6819 45.4968 80.7283 45.7607C79.7747 46.0026 78.8654 46.1236 78.0005 46.1236C75.3836 46.1236 73.3101 45.3758 71.7799 43.8803C70.2497 42.3848 69.4845 40.3394 69.4845 37.7442C69.4845 36.0947 69.8172 34.6321 70.4825 33.3565C71.1478 32.0809 72.0793 31.0912 73.2768 30.3874C74.4966 29.6837 75.8715 29.3318 77.4017 29.3318C78.8654 29.3318 80.1406 29.6507 81.2273 30.2885C82.314 30.9263 83.1567 31.828 83.7555 32.9936C84.3542 34.1593 84.6536 35.5339 84.6536 37.1174C84.6536 38.0631 84.2323 38.5359 83.3895 38.5359H73.5762C73.7093 40.0535 74.1417 41.1751 74.8736 41.9009C75.6054 42.6047 76.6699 42.9566 78.0671 42.9566C78.7767 42.9566 79.3977 42.8686 79.9299 42.6927C80.4843 42.5167 81.1053 42.2748 81.7928 41.9669C82.4581 41.615 82.946 41.4391 83.2565 41.4391ZM77.5015 32.2349C76.3705 32.2349 75.4613 32.5868 74.7738 33.2906C74.1085 33.9943 73.7093 35.006 73.5762 36.3256H81.0942C81.0499 34.984 80.7172 33.9723 80.0963 33.2906C79.4753 32.5868 78.6104 32.2349 77.5015 32.2349Z" fill="url(#paint4_linear)"/>
<path d="M104.683 29.3318C106.635 29.3318 108.087 29.8816 109.041 30.9813C109.995 32.0809 110.471 33.7414 110.471 35.9627V44.0782C110.471 44.6941 110.283 45.1779 109.906 45.5298C109.551 45.8817 109.052 46.0576 108.409 46.0576C107.766 46.0576 107.256 45.8817 106.879 45.5298C106.502 45.1779 106.313 44.6941 106.313 44.0782V36.1937C106.313 34.94 106.069 34.0273 105.581 33.4555C105.116 32.8837 104.373 32.5978 103.353 32.5978C102.155 32.5978 101.19 32.9717 100.458 33.7194C99.7488 34.4672 99.3939 35.4679 99.3939 36.7215V44.0782C99.3939 44.6941 99.2054 45.1779 98.8284 45.5298C98.4514 45.8817 97.9414 46.0576 97.2982 46.0576C96.6551 46.0576 96.145 45.8817 95.768 45.5298C95.4132 45.1779 95.2357 44.6941 95.2357 44.0782V31.3112C95.2357 30.7393 95.4243 30.2775 95.8013 29.9256C96.1783 29.5737 96.6883 29.3978 97.3315 29.3978C97.9081 29.3978 98.3738 29.5737 98.7286 29.9256C99.1056 30.2555 99.2941 30.6954 99.2941 31.2452V32.1359C99.8486 31.2342 100.592 30.5414 101.523 30.0576C102.454 29.5737 103.508 29.3318 104.683 29.3318Z" fill="url(#paint5_linear)"/>
<path d="M115.441 46.0576C114.842 46.0576 114.343 45.8927 113.944 45.5628C113.567 45.2109 113.379 44.716 113.379 44.0782V31.3442C113.379 30.7064 113.567 30.2225 113.944 29.8926C114.343 29.5627 114.842 29.3978 115.441 29.3978C116.04 29.3978 116.539 29.5627 116.938 29.8926C117.337 30.2225 117.537 30.7064 117.537 31.3442V44.0782C117.537 44.716 117.337 45.2109 116.938 45.5628C116.539 45.8927 116.04 46.0576 115.441 46.0576ZM115.441 26.4617C114.687 26.4617 114.088 26.2637 113.645 25.8678C113.201 25.45 112.98 24.9111 112.98 24.2513C112.98 23.5915 113.201 23.0637 113.645 22.6678C114.088 22.2719 114.687 22.074 115.441 22.074C116.173 22.074 116.761 22.2719 117.204 22.6678C117.67 23.0637 117.903 23.5915 117.903 24.2513C117.903 24.9111 117.681 25.45 117.238 25.8678C116.794 26.2637 116.195 26.4617 115.441 26.4617Z" fill="url(#paint6_linear)"/>
<path d="M134.871 22.4369C135.492 22.4369 136.002 22.6128 136.401 22.9647C136.8 23.3166 137 23.7785 137 24.3503V44.0782C137 44.672 136.811 45.1449 136.434 45.4968C136.057 45.8487 135.559 46.0246 134.938 46.0246C134.317 46.0246 133.818 45.8487 133.441 45.4968C133.064 45.1449 132.875 44.672 132.875 44.0782V43.2535C132.387 44.1552 131.678 44.859 130.746 45.3648C129.837 45.8707 128.795 46.1236 127.619 46.1236C126.222 46.1236 124.969 45.7717 123.86 45.0679C122.773 44.3641 121.92 43.3744 121.299 42.0988C120.7 40.8012 120.4 39.3167 120.4 37.6452C120.4 35.9737 120.7 34.5112 121.299 33.2575C121.92 32.0039 122.773 31.0362 123.86 30.3544C124.947 29.6726 126.2 29.3317 127.619 29.3317C128.795 29.3317 129.837 29.5737 130.746 30.0575C131.655 30.5414 132.354 31.2232 132.842 32.1029V24.2843C132.842 23.7345 133.019 23.2946 133.374 22.9647C133.751 22.6128 134.25 22.4369 134.871 22.4369ZM128.717 42.9236C130.048 42.9236 131.068 42.4727 131.777 41.571C132.509 40.6693 132.875 39.3827 132.875 37.7112C132.875 36.0397 132.509 34.7641 131.777 33.8844C131.068 32.9826 130.059 32.5318 128.75 32.5318C127.42 32.5318 126.388 32.9716 125.656 33.8514C124.925 34.7311 124.559 35.9957 124.559 37.6452C124.559 39.3167 124.925 40.6143 125.656 41.538C126.388 42.4617 127.408 42.9236 128.717 42.9236Z" fill="url(#paint7_linear)"/>
<defs>
<linearGradient id="paint0_linear" x1="0.193638" y1="12.5024" x2="53.7329" y2="64.9948" gradientUnits="userSpaceOnUse">
<stop stop-color="#CC95DF"/>
<stop offset="1" stop-color="#4F80FF"/>
</linearGradient>
<linearGradient id="paint1_linear" x1="0.193638" y1="12.5024" x2="53.7329" y2="64.9948" gradientUnits="userSpaceOnUse">
<stop stop-color="#CC95DF"/>
<stop offset="1" stop-color="#4F80FF"/>
</linearGradient>
<linearGradient id="paint2_linear" x1="0.193638" y1="12.5024" x2="53.7329" y2="64.9948" gradientUnits="userSpaceOnUse">
<stop stop-color="#CC95DF"/>
<stop offset="1" stop-color="#4F80FF"/>
</linearGradient>
<linearGradient id="paint3_linear" x1="0.193638" y1="12.5024" x2="53.7329" y2="64.9948" gradientUnits="userSpaceOnUse">
<stop stop-color="#CC95DF"/>
<stop offset="1" stop-color="#4F80FF"/>
</linearGradient>
<linearGradient id="paint4_linear" x1="0.193638" y1="12.5024" x2="53.7329" y2="64.9948" gradientUnits="userSpaceOnUse">
<stop stop-color="#CC95DF"/>
<stop offset="1" stop-color="#4F80FF"/>
</linearGradient>
<linearGradient id="paint5_linear" x1="0.193638" y1="12.5024" x2="53.7329" y2="64.9948" gradientUnits="userSpaceOnUse">
<stop stop-color="#CC95DF"/>
<stop offset="1" stop-color="#4F80FF"/>
</linearGradient>
<linearGradient id="paint6_linear" x1="0.193638" y1="12.5024" x2="53.7329" y2="64.9948" gradientUnits="userSpaceOnUse">
<stop stop-color="#CC95DF"/>
<stop offset="1" stop-color="#4F80FF"/>
</linearGradient>
<linearGradient id="paint7_linear" x1="0.193638" y1="12.5024" x2="53.7329" y2="64.9948" gradientUnits="userSpaceOnUse">
<stop stop-color="#CC95DF"/>
<stop offset="1" stop-color="#4F80FF"/>
</linearGradient>
</defs>
</svg>
