<svg width="35" height="51" viewBox="0 0 35 51" fill="none" xmlns="http://www.w3.org/2000/svg">
<path d="M28.1345 20.9165C25.9744 22.3917 23.3401 23.2874 20.495 23.2874C17.65 23.2874 15.0156 22.3917 12.8555 20.9165C9.0094 22.0756 6.21704 25.5529 5.95361 29.6624C6.48048 29.6097 7.06001 29.557 7.58688 29.557C14.7522 29.557 20.5477 35.3525 20.5477 42.5178C20.5477 43.6769 20.3896 44.8361 20.0735 45.8898H32.4548C33.4558 45.8898 34.2461 45.0995 34.2988 44.0984L34.9837 30.7688C35.2472 26.1851 32.2967 22.181 28.1345 20.9165Z" fill="#4F80FF"/>
<path d="M20.4951 19.2832C25.82 19.2832 30.1367 14.9665 30.1367 9.64158C30.1367 4.31668 25.82 0 20.4951 0C15.1702 0 10.8535 4.31668 10.8535 9.64158C10.8535 14.9665 15.1702 19.2832 20.4951 19.2832Z" fill="#4F80FF"/>
<path d="M14.1726 39.8305H10.3265V35.9844C10.3265 35.4576 9.90503 34.9834 9.32548 34.9834H5.84817C5.3213 34.9834 4.84714 35.4049 4.84714 35.9844V39.8305H1.00102C0.474157 39.8305 0 40.252 0 40.8316V44.3088C0 44.8357 0.421471 45.3099 1.00102 45.3099H4.84714V49.156C4.84714 49.6829 5.26862 50.157 5.84817 50.157H9.32548C9.85234 50.157 10.3265 49.7356 10.3265 49.156V45.3099H14.1726C14.6995 45.3099 15.1736 44.8884 15.1736 44.3088V40.8316C15.121 40.252 14.6995 39.8305 14.1726 39.8305Z" fill="#4F80FF"/>
</svg>
