<svg width="13" height="24" viewBox="0 0 13 24" fill="none" xmlns="http://www.w3.org/2000/svg">
<path d="M0.448477 1.95459L7.20517 0.0199298C7.50675 -0.0699674 7.80677 0.152903 7.88021 0.514364C7.88021 0.559313 7.88021 0.604262 7.88021 0.64921V23.3239C7.88021 23.6854 7.61769 24 7.31924 24C7.24423 24 7.16923 24 7.13172 23.9532L0.375034 21.3012C0.150019 21.2094 9.6936e-06 20.9435 9.6936e-06 20.6719V2.62882C-0.00155291 2.31418 0.18596 2.04262 0.448477 1.95459ZM6.75514 1.50323L1.08602 3.1682V20.2187L6.75514 22.468V1.54631V1.50323Z" fill="#4F80FF"/>
<path d="M8.55811 1.45837H12.0115C12.3115 1.45837 12.5724 1.77489 12.5724 2.13448V21.2114C12.5724 21.5691 12.3115 21.8838 12.0115 21.8838H8.55811V20.5821H11.4489V2.8087H8.55811V1.50332V1.45837Z" fill="#4F80FF"/>
<path d="M5.85502 12.7964C6.1657 12.7964 6.41755 12.4141 6.41755 11.9424C6.41755 11.4707 6.1657 11.0884 5.85502 11.0884C5.54434 11.0884 5.29248 11.4707 5.29248 11.9424C5.29248 12.4141 5.54434 12.7964 5.85502 12.7964Z" fill="#4F80FF"/>
</svg>
