<svg width="24" height="24" viewBox="0 0 24 24" fill="none" xmlns="http://www.w3.org/2000/svg">
<path d="M9.45455 7.27272H3.63636V23.6364C3.63636 23.8372 3.47356 24 3.27273 24C3.0719 24 2.90909 23.8372 2.90909 23.6364V6.90909C2.90909 6.70826 3.0719 6.54545 3.27273 6.54545H16.3636C16.5645 6.54545 16.7273 6.70826 16.7273 6.90909V23.6364C16.7273 23.8372 16.5645 24 16.3636 24C16.1628 24 16 23.8372 16 23.6364V7.27272H10.1818V23.6364C10.1818 23.8372 10.019 24 9.81818 24C9.61735 24 9.45455 23.8372 9.45455 23.6364V7.27272ZM0.727273 4.36363V23.6364C0.727273 23.8372 0.564467 24 0.363636 24C0.162805 24 0 23.8372 0 23.6364V4C0 3.79916 0.162805 3.63636 0.363636 3.63636H19.2727C19.4736 3.63636 19.6364 3.79916 19.6364 4V23.6364C19.6364 23.8372 19.4736 24 19.2727 24C19.0719 24 18.9091 23.8372 18.9091 23.6364V4.36363H0.727273ZM7.27273 0.877891L6.43894 1.71166C6.29693 1.85367 6.0667 1.85367 5.9247 1.71166C5.78269 1.56966 5.78269 1.33942 5.9247 1.19742L7.0156 0.106507C7.15761 -0.0355022 7.38784 -0.0355022 7.52985 0.106507L8.62076 1.19742C8.76277 1.33942 8.76277 1.56966 8.62076 1.71166C8.47875 1.85367 8.24852 1.85367 8.10651 1.71166L7.27273 0.877891ZM12.3636 0.94028L13.1974 0.106507C13.3394 -0.0355022 13.5697 -0.0355022 13.7117 0.106507C13.8537 0.248516 13.8537 0.478747 13.7117 0.620756L12.6208 1.71166C12.4788 1.85367 12.2485 1.85367 12.1065 1.71166L11.0156 0.620756C10.8736 0.478747 10.8736 0.248516 11.0156 0.106507C11.1576 -0.0355022 11.3878 -0.0355022 11.5299 0.106507L12.3636 0.94028ZM22.1818 16.7273C21.5793 16.7273 21.0909 16.2389 21.0909 15.6364C21.0909 15.0339 21.5793 14.5455 22.1818 14.5455C22.7843 14.5455 23.2727 15.0339 23.2727 15.6364C23.2727 16.2389 22.7843 16.7273 22.1818 16.7273ZM22.1818 16C22.3827 16 22.5455 15.8372 22.5455 15.6364C22.5455 15.4355 22.3827 15.2727 22.1818 15.2727C21.981 15.2727 21.8182 15.4355 21.8182 15.6364C21.8182 15.8372 21.981 16 22.1818 16ZM22.1818 13.8182C21.5793 13.8182 21.0909 13.3298 21.0909 12.7273C21.0909 12.1248 21.5793 11.6364 22.1818 11.6364C22.7843 11.6364 23.2727 12.1248 23.2727 12.7273C23.2727 13.3298 22.7843 13.8182 22.1818 13.8182ZM22.1818 13.0909C22.3827 13.0909 22.5455 12.9281 22.5455 12.7273C22.5455 12.5264 22.3827 12.3636 22.1818 12.3636C21.981 12.3636 21.8182 12.5264 21.8182 12.7273C21.8182 12.9281 21.981 13.0909 22.1818 13.0909Z" fill="#4F80FF"/>
</svg>
