<svg width="23" height="31" viewBox="0 0 23 31" fill="none" xmlns="http://www.w3.org/2000/svg">
<path d="M18.0995 2.47176C20.6054 -2.62447 16.2313 1.61218 11.3589 2.40134C9.3878 2.72066 9.04401 1.38168 6.54823 0.291629C5.43165 -0.196032 4.55014 1.11139 5.19352 2.7595C5.64684 3.92067 7.04011 5.18585 8.10735 6.26049H15.3275C16.5077 5.20661 17.4523 3.91558 18.0995 2.47176V2.47176Z" fill="#1A2E6C"/>
<path d="M8.4626 8.03949C8.27028 8.04 8.086 8.11676 7.95018 8.25294C7.81437 8.38912 7.7381 8.5736 7.7381 8.76593C7.7381 8.95825 7.81437 9.14273 7.95018 9.27891C8.086 9.41509 8.27028 9.49185 8.4626 9.49236H14.9723C15.0679 9.49261 15.1625 9.47401 15.2509 9.43762C15.3393 9.40122 15.4196 9.34776 15.4872 9.28027C15.5549 9.21279 15.6086 9.13263 15.6452 9.04437C15.6818 8.9561 15.7007 8.86148 15.7007 8.76593C15.7007 8.67037 15.6818 8.57575 15.6452 8.48748C15.6086 8.39922 15.5549 8.31906 15.4872 8.25158C15.4196 8.1841 15.3393 8.13063 15.2509 8.09423C15.1625 8.05784 15.0679 8.03924 14.9723 8.03949H8.4626Z" fill="#1A2E6C"/>
<path d="M0.303401 20.8806C-0.0265763 22.0125 -0.0883927 23.2056 0.122852 24.3655C0.334096 25.5254 0.812594 26.6202 1.52042 27.563C2.22825 28.5059 3.14596 29.2709 4.20081 29.7975C5.25566 30.3241 6.41865 30.5977 7.59763 30.5967H13.3397C22.4467 30.5967 24.5088 24.439 22.0326 18.861C20.9089 16.3298 19.4001 15.1897 18 13.7431C17.3195 13.0401 15.9288 11.868 15.3275 11.2713H8.10741C7.55097 11.7883 5.70145 13.3957 4.97587 13.9778C2.7474 15.7452 1.11621 18.155 0.303401 20.8806V20.8806Z" fill="#1A2E6C"/>
</svg>
