<svg width="103" height="103" viewBox="0 0 103 103" fill="none" xmlns="http://www.w3.org/2000/svg">
<rect width="103" height="103" rx="15" fill="white"/>
<rect width="103" height="103" rx="15" stroke="white"/>
<path d="M5.97674 68.5588C7.5726 71.0105 9.51263 73.2055 11.726 75.128C13.4102 73.7697 15.2619 72.7738 17.0611 71.8213C17.7669 71.4596 18.472 71.0896 19.1686 70.693C20.2345 70.0905 21.3037 69.5296 22.4245 69.1163C20.2387 66.7162 18.3145 64.0912 16.6936 61.2653C15.2536 58.7561 14.0694 56.1177 13.1419 53.386L2 59.6611C2.85502 62.827 4.18671 65.8162 5.97674 68.5588Z" fill="#4F80FF"/>
<path d="M24.227 68.6171C25.0504 68.4646 25.9096 68.4037 26.8313 68.4971C30.2613 68.8496 33.3922 70.2871 39.644 73.1447L40.2257 73.4088C41.8574 74.1672 42.7565 74.5814 44.1582 74.7047C47.315 74.9955 49.8992 73.5322 51.1334 72.8263C56.4509 69.7929 64.6161 64.1845 74.7396 56.6094C76.0796 55.4627 76.9438 54.1318 76.9972 53.0643C77.0322 52.2268 76.7413 51.5651 76.133 51.0801C75.2155 50.3568 73.6638 50.1451 72.2704 50.5509C69.2545 51.4326 67.8787 52.3326 65.9745 53.5843C65.2253 54.0785 64.3694 54.6335 63.3111 55.2593C62.3119 57.5844 59.9852 59.1469 57.7376 59.3778L56.5468 59.3869C56.476 59.4486 56.4059 59.5103 56.3176 59.5453C55.2684 60.0744 54.4126 60.5244 53.6901 60.8944C51.1067 62.2261 50.1983 62.6936 49.2192 62.6936C49.0867 62.6936 48.955 62.6845 48.8225 62.667C47.9141 62.5611 42.1999 61.4945 41.5123 60.3919C41.3715 60.1536 41.0448 59.3161 41.4332 58.5577C41.7857 57.8702 42.544 57.4994 43.329 57.6319L57.7376 57.6144C59.9602 57.6144 61.7677 55.8685 61.7677 53.7251C61.7677 51.5909 60.0218 49.9242 57.791 49.9242H45.1032H43.4715C42.4924 49.9242 41.5224 49.6334 40.6582 49.0867C37.8723 47.3159 32.1847 44.5825 25.5096 46.2667C22.9437 46.91 20.6153 48.1717 18.3936 50.1201C17.7236 50.6934 17.0002 51.2134 16.2336 51.6459L14.6235 52.5526C15.5302 55.2885 16.7019 57.9294 18.1403 60.4361C19.8411 63.4012 21.8828 66.142 24.227 68.6171Z" fill="#4F80FF"/>
<circle cx="57.2314" cy="31.9314" r="4.93138" fill="#4F80FF"/>
<circle cx="39.4785" cy="36.8628" r="4.93138" fill="#4F80FF"/>
</svg>
