<svg width="35" height="60" viewBox="0 0 35 60" fill="none" xmlns="http://www.w3.org/2000/svg">
<g filter="url(#filter0_i)">
<path fill-rule="evenodd" clip-rule="evenodd" d="M24.2279 39.517L24.2356 39.5039L24.2431 39.4908C25.3894 37.4848 26.6257 35.8229 27.9365 34.4736C29.4759 32.8889 30.8802 31.4394 32.1491 30.1251C32.8187 29.4316 33.4014 28.7821 33.8381 28.205C34.0539 27.9198 34.2909 27.5783 34.4885 27.2042C34.6373 26.9227 35 26.1992 35 25.2597C35 23.5281 34.0106 22.2672 33.3101 21.5549C32.3461 20.5267 30.9708 19.6977 29.2345 19.6977C28.201 19.6977 27.3924 20.1196 27.034 20.3218C26.5807 20.5775 26.1516 20.8947 25.7695 21.2061C24.9979 21.8348 24.1052 22.6981 23.1185 23.7319L23.1102 23.7405L23.102 23.7492C21.0657 25.9128 18.7059 28.743 16.0264 32.2261C18.212 22.9911 19.3314 15.1164 19.3314 8.64146C19.3314 6.93824 18.8689 5.3333 17.9913 3.88491C17.6324 3.23916 17.163 2.54474 16.5359 1.96991C15.8651 1.35503 14.8136 0.705414 13.4302 0.705414C12.5354 0.705414 10.7407 0.904771 9.59654 2.51587C9.07924 3.22062 8.89249 3.96134 8.8099 4.39496C8.71046 4.917 8.68217 5.44738 8.68217 5.92828C8.68217 11.4415 7.99213 17.7012 6.57829 24.7262C5.14272 31.8592 3.71494 37.9434 2.2978 42.9925C1.57108 45.5588 1.01717 47.6053 0.642401 49.1161C0.455503 49.8695 0.305831 50.519 0.200727 51.0478C0.113632 51.486 0 52.1068 0 52.6628C0 54.0408 0.390787 55.3286 1.0046 56.488L1.06151 56.5955L1.12597 56.6986C1.82538 57.8177 3.21956 59.3779 5.49419 59.3779C6.35096 59.3779 7.04599 59.104 7.48571 58.8842C7.94993 58.6521 8.35819 58.364 8.69809 58.0921C9.36899 57.5554 10.0558 56.8521 10.7404 56.0712C11.5808 55.1418 12.86 53.5957 14.5621 51.4585C15.3848 52.763 16.446 53.9692 17.7023 55.074L17.7131 55.0835L17.724 55.0929C20.6142 57.5912 23.7674 59.3779 27.0639 59.3779C27.9297 59.3779 29.1464 59.2663 30.2485 58.5971C31.624 57.762 32.3546 56.3478 32.3546 54.8333C32.3546 53.2639 31.4419 52.2106 30.9882 51.7569C30.4658 51.2345 29.8393 50.8045 29.2467 50.4512C28.2054 49.79 27.0626 49.1145 25.8216 48.4245C25.1226 48.017 24.3759 47.3661 23.6113 46.3633C23.0743 45.6227 22.7907 44.7788 22.7907 43.7093C22.7907 42.7484 23.1429 41.3771 24.2279 39.517Z" fill="url(#paint0_linear)"/>
</g>
<defs>
<filter id="filter0_i" x="-2.02379" y="0.705414" width="37.0238" height="58.8749" filterUnits="userSpaceOnUse" color-interpolation-filters="sRGB">
<feFlood flood-opacity="0" result="BackgroundImageFix"/>
<feBlend mode="normal" in="SourceGraphic" in2="BackgroundImageFix" result="shape"/>
<feColorMatrix in="SourceAlpha" type="matrix" values="0 0 0 0 0 0 0 0 0 0 0 0 0 0 0 0 0 0 127 0" result="hardAlpha"/>
<feOffset dx="-2.02379" dy="0.202379"/>
<feGaussianBlur stdDeviation="1.31546"/>
<feComposite in2="hardAlpha" operator="arithmetic" k2="-1" k3="1"/>
<feColorMatrix type="matrix" values="0 0 0 0 0.0991562 0 0 0 0 0.0869792 0 0 0 0 0.695833 0 0 0 0.3 0"/>
<feBlend mode="normal" in2="shape" result="effect1_innerShadow"/>
</filter>
<linearGradient id="paint0_linear" x1="0.0494695" y1="15.3764" x2="25.7066" y2="20.853" gradientUnits="userSpaceOnUse">
<stop stop-color="#CC95DF"/>
<stop offset="1" stop-color="#4F80FF"/>
</linearGradient>
</defs>
</svg>
