<svg xmlns="http://www.w3.org/2000/svg" xmlns:xlink="http://www.w3.org/1999/xlink" width="24" height="16" viewBox="0 0 24 16">
    <defs>
        <path id="a" d="M0 0h260v1236H0z"/>
    </defs>
    <g fill="none" fill-rule="evenodd" transform="translate(-26 -307)">
        <path fill="#F2F4F4" d="M0 0h1440v940H0z"/>
        <mask id="b" fill="#fff">
            <use xlink:href="#a"/>
        </mask>
        <use fill="#F2F4F4" xlink:href="#a"/>
        <g fill="#475F7B" fill-rule="nonzero" mask="url(#b)">
            <path d="M40.257 310.13c.366 0 .736.092 1.007.274l1.995 1.704c.502.336 1.28.931 1.733 1.322l1.812 1.57L50 311.55l-4.966-4.43-1.196 1.093s-.4-.085-.678-.21l-1.873-.85a1.957 1.957 0 0 0-.794-.153c-.41 0-.834.103-1.131.299l-2.898 1.893c-.503.332-.615.982-.247 1.443l.171.217c.236.295.621.457 1.007.457.217 0 .433-.05.623-.158l1.375-.818c.243-.136.552-.203.864-.203z"/>
            <path d="M45.65 316.056l-2.964-2.659a52.513 52.513 0 0 0-.832-.626l-1.858-1.642a.618.618 0 0 0-.37-.007l-1.348.83c-.382.222-.825.34-1.28.34-.802 0-1.56-.363-2.027-.971l-.168-.218a2.21 2.21 0 0 1-.437-1.725 2.264 2.264 0 0 1 .977-1.509l.305-.206c-.44-.052-.929-.007-1.286.14 0 0-.598.255-.79.333-.445.182-1.069.18-1.069.18L31.04 307 26 311.83l1.895 1.84.43-.436a2.447 2.447 0 0 1 1.735-.715c.619 0 1.206.227 1.653.638l.204.188c.262.241.456.526.58.833.392.097.753.29 1.052.565l.203.187c.462.424.726.998.742 1.617.14.083.273.182.394.294l.206.189c.287.264.491.581.612.921.363.102.697.287.976.543l.208.19c.834.769.967 1.984.382 2.894l.155.14c.442.396 1.14.372 1.55-.054l.192-.2a1.03 1.03 0 0 0-.034-1.467l1.421 1.272a1.13 1.13 0 0 0 1.55-.056l.193-.2a1.035 1.035 0 0 0-.05-1.488l.365.328c.442.397 1.139.372 1.55-.055l.192-.2c.41-.426.384-1.1-.058-1.496l-.308-.276a1.127 1.127 0 0 0 1.524-.074l.193-.2c.412-.427.386-1.1-.056-1.496z"/>
            <path d="M36.64 319.94l-.217-.191a1.209 1.209 0 0 0-.802-.298c-.307 0-.614.112-.842.334l-.004-.006a1.03 1.03 0 0 0-.04-1.528l-.217-.192a1.2 1.2 0 0 0-.797-.295c-.29 0-.58.1-.804.297l.436-.425a1.03 1.03 0 0 0-.04-1.528l-.216-.192a1.204 1.204 0 0 0-.8-.296c-.299 0-.597.105-.823.314a1.025 1.025 0 0 0-.108-1.445l-.216-.192a1.211 1.211 0 0 0-.803-.297c-.308 0-.615.112-.842.334l-2.185 2.127a1.029 1.029 0 0 0 .04 1.528l.216.191c.223.198.51.295.796.295.264 0 .528-.083.742-.245l-.576.56c-.44.43-.423 1.118.04 1.528l.217.192c.225.199.514.298.803.298.308 0 .614-.112.842-.334l.45-.438c-.4.431-.374 1.088.074 1.485l.218.192c.224.198.514.297.803.297.307 0 .614-.112.842-.333l.722-.695a1.03 1.03 0 0 0 .039 1.528l.218.193c.223.198.513.297.802.297.307 0 .614-.112.842-.334l1.23-1.198a1.03 1.03 0 0 0-.04-1.527z"/>
        </g>
    </g>
</svg>
