<svg width="60" height="60" viewBox="0 0 60 60" fill="none" xmlns="http://www.w3.org/2000/svg">
<path d="M57.2766 8.54992L55.6148 7.9454C53.8146 7.29163 51.8173 8.22236 51.1622 10.0226L40.6791 38.8221C40.6112 39.0111 40.5913 39.2135 40.6219 39.4119L41.5992 45.947C41.6645 46.3838 41.9627 46.7499 42.3768 46.8991C42.7909 47.0495 43.253 46.963 43.5832 46.6701L48.5351 42.2933C48.6856 42.1589 48.8001 41.9911 48.8707 41.8033L59.3537 13.0025C60.0062 11.2036 59.0754 9.20636 57.2766 8.54992ZM44.6817 42.4944C44.3129 42.2454 43.8881 42.091 43.446 42.0443L43.0426 39.3573L46.7149 40.6955L44.6817 42.4944ZM57.0941 12.181L56.4071 14.0637L52.7347 12.7269L53.4191 10.8441C53.6215 10.2902 54.238 10.0026 54.7919 10.205L56.4537 10.8095C57.0076 11.0106 57.2965 11.6271 57.0941 12.181Z" fill="#1A2E6C"/>
<path d="M40.606 51.0135C40.4662 51.0135 40.3224 50.9856 40.1879 50.9217C40.06 50.8617 37.0042 49.4344 33.449 46.8086C32.7074 46.26 31.9511 46.0456 31.4278 46.2347C30.7181 46.4904 30.3439 47.4717 30.1509 48.248C29.8699 49.3931 29.1469 50.1427 28.1123 50.3584C26.4399 50.71 24.3121 49.485 23.5252 48.453C23.2682 48.1135 23.0365 47.6461 22.7942 47.1495C22.5465 46.6488 21.97 45.4744 21.6398 45.3692C21.6424 45.3759 21.4787 45.4265 21.1817 45.7647C20.006 47.1055 18.4721 47.6381 17.0806 47.1867C15.4429 46.6595 14.3244 44.8885 14.09 42.4519C13.6506 37.8874 12.3577 35.1032 11.7466 34.7943C11.6347 34.8728 11.2579 35.2177 10.7945 36.4973C10.0875 38.4546 9.69203 40.1909 9.34317 41.7249C8.47502 45.5343 7.79062 48.5436 3.13828 50.9044C2.64695 51.1547 2.04377 50.9576 1.79345 50.4663C1.54312 49.975 1.74152 49.3731 2.23285 49.1228C6.05032 47.1868 6.55497 44.9631 7.39516 41.2815C7.756 39.6929 8.16744 37.8914 8.91709 35.8169C9.20869 35.0126 10.0955 32.56 11.9676 32.7957C15.1167 33.1938 15.9888 41.3334 16.0767 42.2588C16.2298 43.8526 16.849 45.0124 17.6918 45.284C18.3136 45.4837 19.0367 45.1775 19.6811 44.4438C20.3828 43.6396 21.1325 43.2827 21.9047 43.3866C23.2576 43.5663 23.9926 45.0616 24.5864 46.264C24.7768 46.6528 24.9739 47.0536 25.1137 47.236C25.5345 47.7886 26.9206 48.5635 27.7035 48.3971C27.834 48.3705 28.075 48.3185 28.2108 47.766C28.7674 45.501 29.8992 44.6582 30.7487 44.3506C31.9218 43.9285 33.3359 44.2361 34.6368 45.1961C38.0175 47.6954 40.9974 49.0908 41.0267 49.1055C41.5261 49.3372 41.7444 49.931 41.5127 50.4317C41.345 50.8005 40.9828 51.0135 40.606 51.0135Z" fill="#1A2E6C"/>
</svg>
